<?xml version="1.0"?>
<svg width="665" height="1815" xmlns="http://www.w3.org/2000/svg" version="1.1">
 <rect x="147" y="1622" width="295" height="186" stroke="#20208C" fill="white"/>
 <text fill="#8C2020" font-family="Arial" font-size="10">
  <tspan x="150" y="1635">Abstract Class: tnn::CpuLayerAcc</tspan>
  <tspan x="150" y="1655">defined as:</tspan>
  <tspan x="150" y="1665" xml:space='preserve'>  </tspan></text>
 <text x="57" y="1592" fill="black" font-family="Arial" font-size="10">Base Classes:</text>
 <polyline points="147,1625 136,1625 136,1607 121,1607" stroke="#8C2020" fill="none"/>
 <polygon points="121,1607 127,1604 127,1610 121,1607" stroke="#8C2020" fill="#8C2020"/>
 <polygon points="7,1607 12,1598 116,1598 121,1607 116,1616 12,1616 7,1607" stroke="#20208C" fill="white"/>
 <text x="15" y="1611" fill="black" font-family="Arial" font-size="10">tnn::AbstractLayerAcc</text>
 <text x="464" y="17" fill="black" font-family="Arial" font-size="10">Derived Classes:</text>
 <polyline points="442,1625 449,1625 449,32 464,32" stroke="#8C2020" fill="none"/>
 <polygon points="464,32 458,29 458,35 464,32" stroke="#8C2020" fill="#8C2020"/>
 <polyline points="442,1625 449,1625 449,53 464,53" stroke="#8C2020" fill="none"/>
 <polygon points="464,53 458,50 458,56 464,53" stroke="#8C2020" fill="#8C2020"/>
 <polyline points="442,1625 449,1625 449,74 464,74" stroke="#8C2020" fill="none"/>
 <polygon points="464,74 458,71 458,77 464,74" stroke="#8C2020" fill="#8C2020"/>
 <polyline points="442,1625 449,1625 449,95 464,95" stroke="#8C2020" fill="none"/>
 <polygon points="464,95 458,92 458,98 464,95" stroke="#8C2020" fill="#8C2020"/>
 <polyline points="442,1625 449,1625 449,116 464,116" stroke="#8C2020" fill="none"/>
 <polygon points="464,116 458,113 458,119 464,116" stroke="#8C2020" fill="#8C2020"/>
 <polyline points="442,1625 449,1625 449,137 464,137" stroke="#8C2020" fill="none"/>
 <polygon points="464,137 458,134 458,140 464,137" stroke="#8C2020" fill="#8C2020"/>
 <polyline points="442,1625 449,1625 449,158 464,158" stroke="#8C2020" fill="none"/>
 <polygon points="464,158 458,155 458,161 464,158" stroke="#8C2020" fill="#8C2020"/>
 <polyline points="442,1625 449,1625 449,179 464,179" stroke="#8C2020" fill="none"/>
 <polygon points="464,179 458,176 458,182 464,179" stroke="#8C2020" fill="#8C2020"/>
 <polyline points="442,1625 449,1625 449,200 464,200" stroke="#8C2020" fill="none"/>
 <polygon points="464,200 458,197 458,203 464,200" stroke="#8C2020" fill="#8C2020"/>
 <polyline points="442,1625 449,1625 449,221 464,221" stroke="#8C2020" fill="none"/>
 <polygon points="464,221 458,218 458,224 464,221" stroke="#8C2020" fill="#8C2020"/>
 <polyline points="442,1625 449,1625 449,242 464,242" stroke="#8C2020" fill="none"/>
 <polygon points="464,242 458,239 458,245 464,242" stroke="#8C2020" fill="#8C2020"/>
 <polyline points="442,1625 449,1625 449,263 464,263" stroke="#8C2020" fill="none"/>
 <polygon points="464,263 458,260 458,266 464,263" stroke="#8C2020" fill="#8C2020"/>
 <polyline points="442,1625 449,1625 449,284 464,284" stroke="#8C2020" fill="none"/>
 <polygon points="464,284 458,281 458,287 464,284" stroke="#8C2020" fill="#8C2020"/>
 <polyline points="442,1625 449,1625 449,305 464,305" stroke="#8C2020" fill="none"/>
 <polygon points="464,305 458,302 458,308 464,305" stroke="#8C2020" fill="#8C2020"/>
 <polyline points="442,1625 449,1625 449,326 464,326" stroke="#8C2020" fill="none"/>
 <polygon points="464,326 458,323 458,329 464,326" stroke="#8C2020" fill="#8C2020"/>
 <polyline points="442,1625 449,1625 449,347 464,347" stroke="#8C2020" fill="none"/>
 <polygon points="464,347 458,344 458,350 464,347" stroke="#8C2020" fill="#8C2020"/>
 <polyline points="442,1625 449,1625 449,368 464,368" stroke="#8C2020" fill="none"/>
 <polygon points="464,368 458,365 458,371 464,368" stroke="#8C2020" fill="#8C2020"/>
 <polyline points="442,1625 449,1625 449,389 464,389" stroke="#8C2020" fill="none"/>
 <polygon points="464,389 458,386 458,392 464,389" stroke="#8C2020" fill="#8C2020"/>
 <polyline points="442,1625 449,1625 449,410 464,410" stroke="#8C2020" fill="none"/>
 <polygon points="464,410 458,407 458,413 464,410" stroke="#8C2020" fill="#8C2020"/>
 <polyline points="442,1625 449,1625 449,431 464,431" stroke="#8C2020" fill="none"/>
 <polygon points="464,431 458,428 458,434 464,431" stroke="#8C2020" fill="#8C2020"/>
 <polyline points="442,1625 449,1625 449,452 464,452" stroke="#8C2020" fill="none"/>
 <polygon points="464,452 458,449 458,455 464,452" stroke="#8C2020" fill="#8C2020"/>
 <polyline points="442,1625 449,1625 449,473 464,473" stroke="#8C2020" fill="none"/>
 <polygon points="464,473 458,470 458,476 464,473" stroke="#8C2020" fill="#8C2020"/>
 <polyline points="442,1625 449,1625 449,494 464,494" stroke="#8C2020" fill="none"/>
 <polygon points="464,494 458,491 458,497 464,494" stroke="#8C2020" fill="#8C2020"/>
 <polyline points="442,1625 449,1625 449,515 464,515" stroke="#8C2020" fill="none"/>
 <polygon points="464,515 458,512 458,518 464,515" stroke="#8C2020" fill="#8C2020"/>
 <polyline points="442,1625 449,1625 449,536 464,536" stroke="#8C2020" fill="none"/>
 <polygon points="464,536 458,533 458,539 464,536" stroke="#8C2020" fill="#8C2020"/>
 <polyline points="442,1625 449,1625 449,557 464,557" stroke="#8C2020" fill="none"/>
 <polygon points="464,557 458,554 458,560 464,557" stroke="#8C2020" fill="#8C2020"/>
 <polyline points="442,1625 449,1625 449,578 464,578" stroke="#8C2020" fill="none"/>
 <polygon points="464,578 458,575 458,581 464,578" stroke="#8C2020" fill="#8C2020"/>
 <polyline points="442,1625 449,1625 449,599 464,599" stroke="#8C2020" fill="none"/>
 <polygon points="464,599 458,596 458,602 464,599" stroke="#8C2020" fill="#8C2020"/>
 <polyline points="442,1625 449,1625 449,620 464,620" stroke="#8C2020" fill="none"/>
 <polygon points="464,620 458,617 458,623 464,620" stroke="#8C2020" fill="#8C2020"/>
 <polyline points="442,1625 449,1625 449,641 464,641" stroke="#8C2020" fill="none"/>
 <polygon points="464,641 458,638 458,644 464,641" stroke="#8C2020" fill="#8C2020"/>
 <polyline points="442,1625 449,1625 449,662 464,662" stroke="#8C2020" fill="none"/>
 <polygon points="464,662 458,659 458,665 464,662" stroke="#8C2020" fill="#8C2020"/>
 <polyline points="442,1625 449,1625 449,683 464,683" stroke="#8C2020" fill="none"/>
 <polygon points="464,683 458,680 458,686 464,683" stroke="#8C2020" fill="#8C2020"/>
 <polyline points="442,1625 449,1625 449,704 464,704" stroke="#8C2020" fill="none"/>
 <polygon points="464,704 458,701 458,707 464,704" stroke="#8C2020" fill="#8C2020"/>
 <polyline points="442,1625 449,1625 449,725 464,725" stroke="#8C2020" fill="none"/>
 <polygon points="464,725 458,722 458,728 464,725" stroke="#8C2020" fill="#8C2020"/>
 <polyline points="442,1625 449,1625 449,746 464,746" stroke="#8C2020" fill="none"/>
 <polygon points="464,746 458,743 458,749 464,746" stroke="#8C2020" fill="#8C2020"/>
 <polyline points="442,1625 449,1625 449,767 464,767" stroke="#8C2020" fill="none"/>
 <polygon points="464,767 458,764 458,770 464,767" stroke="#8C2020" fill="#8C2020"/>
 <polyline points="442,1625 449,1625 449,788 464,788" stroke="#8C2020" fill="none"/>
 <polygon points="464,788 458,785 458,791 464,788" stroke="#8C2020" fill="#8C2020"/>
 <polyline points="442,1625 449,1625 449,809 464,809" stroke="#8C2020" fill="none"/>
 <polygon points="464,809 458,806 458,812 464,809" stroke="#8C2020" fill="#8C2020"/>
 <polyline points="442,1625 449,1625 449,830 464,830" stroke="#8C2020" fill="none"/>
 <polygon points="464,830 458,827 458,833 464,830" stroke="#8C2020" fill="#8C2020"/>
 <polyline points="442,1625 449,1625 449,851 464,851" stroke="#8C2020" fill="none"/>
 <polygon points="464,851 458,848 458,854 464,851" stroke="#8C2020" fill="#8C2020"/>
 <polyline points="442,1625 449,1625 449,872 464,872" stroke="#8C2020" fill="none"/>
 <polygon points="464,872 458,869 458,875 464,872" stroke="#8C2020" fill="#8C2020"/>
 <polyline points="442,1625 449,1625 449,893 464,893" stroke="#8C2020" fill="none"/>
 <polygon points="464,893 458,890 458,896 464,893" stroke="#8C2020" fill="#8C2020"/>
 <polyline points="442,1625 449,1625 449,914 464,914" stroke="#8C2020" fill="none"/>
 <polygon points="464,914 458,911 458,917 464,914" stroke="#8C2020" fill="#8C2020"/>
 <polyline points="442,1625 449,1625 449,935 464,935" stroke="#8C2020" fill="none"/>
 <polygon points="464,935 458,932 458,938 464,935" stroke="#8C2020" fill="#8C2020"/>
 <polyline points="442,1625 449,1625 449,956 464,956" stroke="#8C2020" fill="none"/>
 <polygon points="464,956 458,953 458,959 464,956" stroke="#8C2020" fill="#8C2020"/>
 <polyline points="442,1625 449,1625 449,977 464,977" stroke="#8C2020" fill="none"/>
 <polygon points="464,977 458,974 458,980 464,977" stroke="#8C2020" fill="#8C2020"/>
 <polyline points="442,1625 449,1625 449,998 464,998" stroke="#8C2020" fill="none"/>
 <polygon points="464,998 458,995 458,1001 464,998" stroke="#8C2020" fill="#8C2020"/>
 <polyline points="442,1625 449,1625 449,1019 464,1019" stroke="#8C2020" fill="none"/>
 <polygon points="464,1019 458,1016 458,1022 464,1019" stroke="#8C2020" fill="#8C2020"/>
 <polyline points="442,1625 449,1625 449,1040 464,1040" stroke="#8C2020" fill="none"/>
 <polygon points="464,1040 458,1037 458,1043 464,1040" stroke="#8C2020" fill="#8C2020"/>
 <polyline points="442,1625 449,1625 449,1061 464,1061" stroke="#8C2020" fill="none"/>
 <polygon points="464,1061 458,1058 458,1064 464,1061" stroke="#8C2020" fill="#8C2020"/>
 <polyline points="442,1625 449,1625 449,1082 464,1082" stroke="#8C2020" fill="none"/>
 <polygon points="464,1082 458,1079 458,1085 464,1082" stroke="#8C2020" fill="#8C2020"/>
 <polyline points="442,1625 449,1625 449,1103 464,1103" stroke="#8C2020" fill="none"/>
 <polygon points="464,1103 458,1100 458,1106 464,1103" stroke="#8C2020" fill="#8C2020"/>
 <polyline points="442,1625 449,1625 449,1124 464,1124" stroke="#8C2020" fill="none"/>
 <polygon points="464,1124 458,1121 458,1127 464,1124" stroke="#8C2020" fill="#8C2020"/>
 <polyline points="442,1625 449,1625 449,1145 464,1145" stroke="#8C2020" fill="none"/>
 <polygon points="464,1145 458,1142 458,1148 464,1145" stroke="#8C2020" fill="#8C2020"/>
 <polyline points="442,1625 449,1625 449,1166 464,1166" stroke="#8C2020" fill="none"/>
 <polygon points="464,1166 458,1163 458,1169 464,1166" stroke="#8C2020" fill="#8C2020"/>
 <polyline points="442,1625 449,1625 449,1187 464,1187" stroke="#8C2020" fill="none"/>
 <polygon points="464,1187 458,1184 458,1190 464,1187" stroke="#8C2020" fill="#8C2020"/>
 <polyline points="442,1625 449,1625 449,1208 464,1208" stroke="#8C2020" fill="none"/>
 <polygon points="464,1208 458,1205 458,1211 464,1208" stroke="#8C2020" fill="#8C2020"/>
 <polyline points="442,1625 449,1625 449,1229 464,1229" stroke="#8C2020" fill="none"/>
 <polygon points="464,1229 458,1226 458,1232 464,1229" stroke="#8C2020" fill="#8C2020"/>
 <polyline points="442,1625 449,1625 449,1250 464,1250" stroke="#8C2020" fill="none"/>
 <polygon points="464,1250 458,1247 458,1253 464,1250" stroke="#8C2020" fill="#8C2020"/>
 <polyline points="442,1625 449,1625 449,1271 464,1271" stroke="#8C2020" fill="none"/>
 <polygon points="464,1271 458,1268 458,1274 464,1271" stroke="#8C2020" fill="#8C2020"/>
 <polyline points="442,1625 449,1625 449,1292 464,1292" stroke="#8C2020" fill="none"/>
 <polygon points="464,1292 458,1289 458,1295 464,1292" stroke="#8C2020" fill="#8C2020"/>
 <polyline points="442,1625 449,1625 449,1313 464,1313" stroke="#8C2020" fill="none"/>
 <polygon points="464,1313 458,1310 458,1316 464,1313" stroke="#8C2020" fill="#8C2020"/>
 <polyline points="442,1625 449,1625 449,1334 464,1334" stroke="#8C2020" fill="none"/>
 <polygon points="464,1334 458,1331 458,1337 464,1334" stroke="#8C2020" fill="#8C2020"/>
 <polyline points="442,1625 449,1625 449,1355 464,1355" stroke="#8C2020" fill="none"/>
 <polygon points="464,1355 458,1352 458,1358 464,1355" stroke="#8C2020" fill="#8C2020"/>
 <polyline points="442,1625 449,1625 449,1376 464,1376" stroke="#8C2020" fill="none"/>
 <polygon points="464,1376 458,1373 458,1379 464,1376" stroke="#8C2020" fill="#8C2020"/>
 <polyline points="442,1625 449,1625 449,1397 464,1397" stroke="#8C2020" fill="none"/>
 <polygon points="464,1397 458,1394 458,1400 464,1397" stroke="#8C2020" fill="#8C2020"/>
 <polyline points="442,1625 449,1625 449,1418 464,1418" stroke="#8C2020" fill="none"/>
 <polygon points="464,1418 458,1415 458,1421 464,1418" stroke="#8C2020" fill="#8C2020"/>
 <polyline points="442,1625 449,1625 449,1439 464,1439" stroke="#8C2020" fill="none"/>
 <polygon points="464,1439 458,1436 458,1442 464,1439" stroke="#8C2020" fill="#8C2020"/>
 <polyline points="442,1625 449,1625 449,1460 464,1460" stroke="#8C2020" fill="none"/>
 <polygon points="464,1460 458,1457 458,1463 464,1460" stroke="#8C2020" fill="#8C2020"/>
 <polyline points="442,1625 449,1625 449,1481 464,1481" stroke="#8C2020" fill="none"/>
 <polygon points="464,1481 458,1478 458,1484 464,1481" stroke="#8C2020" fill="#8C2020"/>
 <polyline points="442,1625 449,1625 449,1502 464,1502" stroke="#8C2020" fill="none"/>
 <polygon points="464,1502 458,1499 458,1505 464,1502" stroke="#8C2020" fill="#8C2020"/>
 <polyline points="442,1625 449,1625 449,1523 464,1523" stroke="#8C2020" fill="none"/>
 <polygon points="464,1523 458,1520 458,1526 464,1523" stroke="#8C2020" fill="#8C2020"/>
 <polyline points="442,1625 449,1625 449,1544 464,1544" stroke="#8C2020" fill="none"/>
 <polygon points="464,1544 458,1541 458,1547 464,1544" stroke="#8C2020" fill="#8C2020"/>
 <polyline points="442,1625 449,1625 449,1565 464,1565" stroke="#8C2020" fill="none"/>
 <polygon points="464,1565 458,1562 458,1568 464,1565" stroke="#8C2020" fill="#8C2020"/>
 <polyline points="442,1625 449,1625 449,1586 464,1586" stroke="#8C2020" fill="none"/>
 <polygon points="464,1586 458,1583 458,1589 464,1586" stroke="#8C2020" fill="#8C2020"/>
 <polyline points="442,1625 449,1625 449,1607 464,1607" stroke="#8C2020" fill="none"/>
 <polygon points="464,1607 458,1604 458,1610 464,1607" stroke="#8C2020" fill="#8C2020"/>
 <polygon points="464,32 469,23 607,23 612,32 607,41 469,41 464,32" stroke="#20208C" fill="white"/>
 <text x="472" y="36" fill="black" font-family="Arial" font-size="10">tnn::CpuPixelShuffleLayerAcc</text>
 <polygon points="464,53 469,44 584,44 589,53 584,62 469,62 464,53" stroke="#20208C" fill="white"/>
 <text x="472" y="57" fill="black" font-family="Arial" font-size="10">tnn::CpuWhereLayerAcc</text>
 <polygon points="464,74 469,65 596,65 601,74 596,83 469,83 464,74" stroke="#20208C" fill="white"/>
 <text x="472" y="78" fill="black" font-family="Arial" font-size="10">tnn::CpuReformatLayerAcc</text>
 <polygon points="464,95 469,86 575,86 580,95 575,104 469,104 464,95" stroke="#20208C" fill="white"/>
 <text x="472" y="99" fill="black" font-family="Arial" font-size="10">tnn::CpuCastLayerAcc</text>
 <polygon points="464,116 469,107 585,107 590,116 585,125 469,125 464,116" stroke="#20208C" fill="white"/>
 <text x="472" y="120" fill="black" font-family="Arial" font-size="10">tnn::CpuPadV2LayerAcc</text>
 <polygon points="464,137 469,128 585,128 590,137 585,146 469,146 464,137" stroke="#20208C" fill="white"/>
 <text x="472" y="141" fill="black" font-family="Arial" font-size="10">tnn::CpuGatherLayerAcc</text>
 <polygon points="464,158 469,149 600,149 605,158 600,167 469,167 464,158" stroke="#20208C" fill="white"/>
 <text x="472" y="162" fill="black" font-family="Arial" font-size="10">tnn::CpuGatherNDLayerAcc</text>
 <polygon points="464,179 469,170 605,170 610,179 605,188 469,188 464,179" stroke="#20208C" fill="white"/>
 <text x="472" y="183" fill="black" font-family="Arial" font-size="10">tnn::CpuUnsqueezeLayerAcc</text>
 <polygon points="464,200 469,191 589,191 594,200 589,209 469,209 464,200" stroke="#20208C" fill="white"/>
 <text x="472" y="204" fill="black" font-family="Arial" font-size="10">tnn::CpuExpandLayerAcc</text>
 <polygon points="464,221 469,212 575,212 580,221 575,230 469,230 464,221" stroke="#20208C" fill="white"/>
 <text x="472" y="225" fill="black" font-family="Arial" font-size="10">tnn::CpuReluLayerAcc</text>
 <polygon points="464,242 469,233 581,233 586,242 581,251 469,251 464,242" stroke="#20208C" fill="white"/>
 <text x="472" y="246" fill="black" font-family="Arial" font-size="10">tnn::CpuConstLayerAcc</text>
 <polygon points="464,263 469,254 586,254 591,263 586,272 469,272 464,263" stroke="#20208C" fill="white"/>
 <text x="472" y="267" fill="black" font-family="Arial" font-size="10">tnn::CpuConcatLayerAcc</text>
 <polygon points="464,284 469,275 586,275 591,284 586,293 469,293 464,284" stroke="#20208C" fill="white"/>
 <text x="472" y="288" fill="black" font-family="Arial" font-size="10">tnn::CpuScatterLayerAcc</text>
 <polygon points="464,305 469,296 582,296 587,305 582,314 469,314 464,305" stroke="#20208C" fill="white"/>
 <text x="472" y="309" fill="black" font-family="Arial" font-size="10">tnn::CpuReorgLayerAcc</text>
 <polygon points="464,326 469,317 653,317 658,326 653,335 469,335 464,326" stroke="#20208C" fill="white"/>
 <text x="472" y="330" fill="black" font-family="Arial" font-size="10">tnn::CpuDetectionPostProcessLayerAcc</text>
 <polygon points="464,347 469,338 589,338 594,347 589,356 469,356 464,347" stroke="#20208C" fill="white"/>
 <text x="472" y="351" fill="black" font-family="Arial" font-size="10">tnn::CpuReduceLayerAcc</text>
 <polygon points="464,368 469,359 589,359 594,368 589,377 469,377 464,368" stroke="#20208C" fill="white"/>
 <text x="472" y="372" fill="black" font-family="Arial" font-size="10">tnn::CpuDeconvLayerAcc</text>
 <polygon points="464,389 469,380 578,380 583,389 578,398 469,398 464,389" stroke="#20208C" fill="white"/>
 <text x="472" y="393" fill="black" font-family="Arial" font-size="10">tnn::CpuConvLayerAcc</text>
 <polygon points="464,410 469,401 604,401 609,410 604,419 469,419 464,410" stroke="#20208C" fill="white"/>
 <text x="472" y="414" fill="black" font-family="Arial" font-size="10">tnn::CpuLayerNormLayerAcc</text>
 <polygon points="464,431 469,422 601,422 606,431 601,440 469,440 464,431" stroke="#20208C" fill="white"/>
 <text x="472" y="435" fill="black" font-family="Arial" font-size="10">tnn::CpuScatterNDLayerAcc</text>
 <polygon points="464,452 469,443 607,443 612,452 607,461 469,461 464,452" stroke="#20208C" fill="white"/>
 <text x="472" y="456" fill="black" font-family="Arial" font-size="10">tnn::CpuGroupNormLayerAcc</text>
 <polygon points="464,473 469,464 581,464 586,473 581,482 469,482 464,473" stroke="#20208C" fill="white"/>
 <text x="472" y="477" fill="black" font-family="Arial" font-size="10">tnn::CpuSplitVLayerAcc</text>
 <polygon points="464,494 469,485 571,485 576,494 571,503 469,503 464,494" stroke="#20208C" fill="white"/>
 <text x="472" y="498" fill="black" font-family="Arial" font-size="10">tnn::CpuTileLayerAcc</text>
 <polygon points="464,515 469,506 602,506 607,515 602,524 469,524 464,515" stroke="#20208C" fill="white"/>
 <text x="472" y="519" fill="black" font-family="Arial" font-size="10">tnn::CpuSignedMulLayerAcc</text>
 <polygon points="464,536 469,527 615,527 620,536 615,545 469,545 464,536" stroke="#20208C" fill="white"/>
 <text x="472" y="540" fill="black" font-family="Arial" font-size="10">tnn::CpuStrideSliceV2LayerAcc</text>
 <polygon points="464,557 469,548 588,548 593,557 588,566 469,566 464,557" stroke="#20208C" fill="white"/>
 <text x="472" y="561" fill="black" font-family="Arial" font-size="10">tnn::CpuPool3DLayerAcc</text>
 <polygon points="464,578 469,569 574,569 579,578 574,587 469,587 464,578" stroke="#20208C" fill="white"/>
 <text x="472" y="582" fill="black" font-family="Arial" font-size="10">tnn::CpuSizeLayerAcc</text>
 <polygon points="464,599 469,590 612,590 617,599 612,608 469,608 464,599" stroke="#20208C" fill="white"/>
 <text x="472" y="603" fill="black" font-family="Arial" font-size="10">tnn::CpuInnerProductLayerAcc</text>
 <polygon points="464,620 469,611 589,611 594,620 589,629 469,629 464,620" stroke="#20208C" fill="white"/>
 <text x="472" y="624" fill="black" font-family="Arial" font-size="10">tnn::CpuOneHotLayerAcc</text>
 <polygon points="464,641 469,632 592,632 597,641 592,650 469,650 464,641" stroke="#20208C" fill="white"/>
 <text x="472" y="645" fill="black" font-family="Arial" font-size="10">tnn::CpuBiasAddLayerAcc</text>
 <polygon points="464,662 469,653 586,653 591,662 586,671 469,671 464,662" stroke="#20208C" fill="white"/>
 <text x="472" y="666" fill="black" font-family="Arial" font-size="10">tnn::CpuShuffleLayerAcc</text>
 <polygon points="464,683 469,674 598,674 603,683 598,692 469,692 464,683" stroke="#20208C" fill="white"/>
 <text x="472" y="687" fill="black" font-family="Arial" font-size="10">tnn::CpuHdrGuideLayerAcc</text>
 <polygon points="464,704 469,695 588,695 593,704 588,713 469,713 464,704" stroke="#20208C" fill="white"/>
 <text x="472" y="708" fill="black" font-family="Arial" font-size="10">tnn::CpuMatMulLayerAcc</text>
 <polygon points="464,725 469,716 624,716 629,725 624,734 469,734 464,725" stroke="#20208C" fill="white"/>
 <text x="472" y="729" fill="black" font-family="Arial" font-size="10">tnn::CpuDetectionOuputLayerAcc</text>
 <polygon points="464,746 469,737 603,737 608,746 603,755 469,755 464,746" stroke="#20208C" fill="white"/>
 <text x="472" y="750" fill="black" font-family="Arial" font-size="10">tnn::CpuHardSwishLayerAcc</text>
 <polygon points="464,767 469,758 603,758 608,767 603,776 469,776 464,767" stroke="#20208C" fill="white"/>
 <text x="472" y="771" fill="black" font-family="Arial" font-size="10">tnn::CpuStrideSliceLayerAcc</text>
 <polygon points="464,788 469,779 588,779 593,788 588,797 469,797 464,788" stroke="#20208C" fill="white"/>
 <text x="472" y="792" fill="black" font-family="Arial" font-size="10">tnn::CpuInverseLayerAcc</text>
 <polygon points="464,809 469,800 600,800 605,809 600,818 469,818 464,809" stroke="#20208C" fill="white"/>
 <text x="472" y="813" fill="black" font-family="Arial" font-size="10">tnn::CpuUpsampleLayerAcc</text>
 <polygon points="464,830 469,821 581,821 586,830 581,839 469,839 464,830" stroke="#20208C" fill="white"/>
 <text x="472" y="834" fill="black" font-family="Arial" font-size="10">tnn::CpuRelu6LayerAcc</text>
 <polygon points="464,851 469,842 588,842 593,851 588,860 469,860 464,851" stroke="#20208C" fill="white"/>
 <text x="472" y="855" fill="black" font-family="Arial" font-size="10">tnn::CpuEinsumLayerAcc</text>
 <polygon points="464,872 469,863 592,863 597,872 592,881 469,881 464,872" stroke="#20208C" fill="white"/>
 <text x="472" y="876" fill="black" font-family="Arial" font-size="10">tnn::CpuRoiAlignLayerAcc</text>
 <polygon points="464,893 469,884 585,884 590,893 585,902 469,902 464,893" stroke="#20208C" fill="white"/>
 <text x="472" y="897" fill="black" font-family="Arial" font-size="10">tnn::CpuFlattenLayerAcc</text>
 <polygon points="464,914 469,905 594,905 599,914 594,923 469,923 464,914" stroke="#20208C" fill="white"/>
 <text x="472" y="918" fill="black" font-family="Arial" font-size="10">tnn::CpuNonZeroLayerAcc</text>
 <polygon points="464,935 469,926 596,926 601,935 596,944 469,944 464,935" stroke="#20208C" fill="white"/>
 <text x="472" y="939" fill="black" font-family="Arial" font-size="10">tnn::CpuBinaryOpLayerAcc</text>
 <polygon points="464,956 469,947 593,947 598,956 593,965 469,965 464,956" stroke="#20208C" fill="white"/>
 <text x="472" y="960" fill="black" font-family="Arial" font-size="10">tnn::CpuPriorBoxLayerAcc</text>
 <polygon points="464,977 469,968 608,968 613,977 608,986 469,986 464,977" stroke="#20208C" fill="white"/>
 <text x="472" y="981" fill="black" font-family="Arial" font-size="10">tnn::CpuLogSoftMaxLayerAcc</text>
 <polygon points="464,998 469,989 628,989 633,998 628,1007 469,1007 464,998" stroke="#20208C" fill="white"/>
 <text x="472" y="1002" fill="black" font-family="Arial" font-size="10">tnn::CpuScatterElementsLayerAcc</text>
 <polygon points="464,1019 469,1010 647,1010 652,1019 647,1028 469,1028 464,1019" stroke="#20208C" fill="white"/>
 <text x="472" y="1023" fill="black" font-family="Arial" font-size="10">tnn::CpuNonMaxSuppressionLayerAcc</text>
 <polygon points="464,1040 469,1031 617,1031 622,1040 617,1049 469,1049 464,1040" stroke="#20208C" fill="white"/>
 <text x="472" y="1044" fill="black" font-family="Arial" font-size="10">tnn::CpuInstanceNormLayerAcc</text>
 <polygon points="464,1061 469,1052 573,1052 578,1061 573,1070 469,1070 464,1061" stroke="#20208C" fill="white"/>
 <text x="472" y="1065" fill="black" font-family="Arial" font-size="10">tnn::CpuPadLayerAcc</text>
 <polygon points="464,1082 469,1073 586,1073 591,1082 586,1091 469,1091 464,1082" stroke="#20208C" fill="white"/>
 <text x="472" y="1086" fill="black" font-family="Arial" font-size="10">tnn::CpuBitShiftLayerAcc</text>
 <polygon points="464,1103 469,1094 591,1094 596,1103 591,1112 469,1112 464,1103" stroke="#20208C" fill="white"/>
 <text x="472" y="1107" fill="black" font-family="Arial" font-size="10">tnn::CpuConv3DLayerAcc</text>
 <polygon points="464,1124 469,1115 600,1115 605,1124 600,1133 469,1133 464,1124" stroke="#20208C" fill="white"/>
 <text x="472" y="1128" fill="black" font-family="Arial" font-size="10">tnn::CpuHistogramLayerAcc</text>
 <polygon points="464,1145 469,1136 605,1136 610,1145 605,1154 469,1154 464,1145" stroke="#20208C" fill="white"/>
 <text x="472" y="1149" fill="black" font-family="Arial" font-size="10">tnn::CpuBatchNormLayerAcc</text>
 <polygon points="464,1166 469,1157 580,1157 585,1166 580,1175 469,1175 464,1166" stroke="#20208C" fill="white"/>
 <text x="472" y="1170" fill="black" font-family="Arial" font-size="10">tnn::CpuScaleLayerAcc</text>
 <polygon points="464,1187 469,1178 575,1178 580,1187 575,1196 469,1196 464,1187" stroke="#20208C" fill="white"/>
 <text x="472" y="1191" fill="black" font-family="Arial" font-size="10">tnn::CpuGLULayerAcc</text>
 <polygon points="464,1208 469,1199 616,1199 621,1208 616,1217 469,1217 464,1208" stroke="#20208C" fill="white"/>
 <text x="472" y="1212" fill="black" font-family="Arial" font-size="10">tnn::CpuArgMaxOrMinLayerAcc</text>
 <polygon points="464,1229 469,1220 584,1220 589,1229 584,1238 469,1238 464,1229" stroke="#20208C" fill="white"/>
 <text x="472" y="1233" fill="black" font-family="Arial" font-size="10">tnn::CpuShapeLayerAcc</text>
 <polygon points="464,1250 469,1241 584,1241 589,1250 584,1259 469,1259 464,1250" stroke="#20208C" fill="white"/>
 <text x="472" y="1254" fill="black" font-family="Arial" font-size="10">tnn::CpuRagneLayerAcc</text>
 <polygon points="464,1271 469,1262 608,1262 613,1271 608,1280 469,1280 464,1271" stroke="#20208C" fill="white"/>
 <text x="472" y="1275" fill="black" font-family="Arial" font-size="10">tnn::CpuGridSampleLayerAcc</text>
 <polygon points="464,1292 469,1283 580,1283 585,1292 580,1301 469,1301 464,1292" stroke="#20208C" fill="white"/>
 <text x="472" y="1296" fill="black" font-family="Arial" font-size="10">tnn::CpuEqualLayerAcc</text>
 <polygon points="464,1313 469,1304 591,1304 596,1313 591,1322 469,1322 464,1313" stroke="#20208C" fill="white"/>
 <text x="472" y="1317" fill="black" font-family="Arial" font-size="10">tnn::CpuSoftMaxLayerAcc</text>
 <polygon points="464,1334 469,1325 594,1325 599,1334 594,1343 469,1343 464,1334" stroke="#20208C" fill="white"/>
 <text x="472" y="1338" fill="black" font-family="Arial" font-size="10">tnn::CpuSqueezeLayerAcc</text>
 <polygon points="464,1355 469,1346 576,1346 581,1355 576,1364 469,1364 464,1355" stroke="#20208C" fill="white"/>
 <text x="472" y="1359" fill="black" font-family="Arial" font-size="10">tnn::CpuGeluLayerAcc</text>
 <polygon points="464,1376 469,1367 578,1367 583,1376 578,1385 469,1385 464,1376" stroke="#20208C" fill="white"/>
 <text x="472" y="1380" fill="black" font-family="Arial" font-size="10">tnn::CpuTopKLayerAcc</text>
 <polygon points="464,1397 469,1388 582,1388 587,1397 582,1406 469,1406 464,1397" stroke="#20208C" fill="white"/>
 <text x="472" y="1401" fill="black" font-family="Arial" font-size="10">tnn::CpuPReluLayerAcc</text>
 <polygon points="464,1418 469,1409 595,1409 600,1418 595,1427 469,1427 464,1418" stroke="#20208C" fill="white"/>
 <text x="472" y="1422" fill="black" font-family="Arial" font-size="10">tnn::CpuReshapeLayerAcc</text>
 <polygon points="464,1439 469,1430 593,1430 598,1439 593,1448 469,1448 464,1439" stroke="#20208C" fill="white"/>
 <text x="472" y="1443" fill="black" font-family="Arial" font-size="10">tnn::CpuPermuteLayerAcc</text>
 <polygon points="464,1460 469,1451 591,1451 596,1460 591,1469 469,1469 464,1460" stroke="#20208C" fill="white"/>
 <text x="472" y="1464" fill="black" font-family="Arial" font-size="10">tnn::CpuConv1DLayerAcc</text>
 <polygon points="464,1481 469,1472 588,1472 593,1481 588,1490 469,1490 464,1481" stroke="#20208C" fill="white"/>
 <text x="472" y="1485" fill="black" font-family="Arial" font-size="10">tnn::CpuPool1DLayerAcc</text>
 <polygon points="464,1502 469,1493 610,1493 615,1502 610,1511 469,1511 464,1502" stroke="#20208C" fill="white"/>
 <text x="472" y="1506" fill="black" font-family="Arial" font-size="10">tnn::CpuLSTMONNXLayerAcc</text>
 <polygon points="464,1523 469,1514 581,1514 586,1523 581,1532 469,1532 464,1523" stroke="#20208C" fill="white"/>
 <text x="472" y="1527" fill="black" font-family="Arial" font-size="10">tnn::CpuUnaryLayerAcc</text>
 <polygon points="464,1544 469,1535 575,1535 580,1544 575,1553 469,1553 464,1544" stroke="#20208C" fill="white"/>
 <text x="472" y="1548" fill="black" font-family="Arial" font-size="10">tnn::CpuLRNLayerAcc</text>
 <polygon points="464,1565 469,1556 600,1556 605,1565 600,1574 469,1574 464,1565" stroke="#20208C" fill="white"/>
 <text x="472" y="1569" fill="black" font-family="Arial" font-size="10">tnn::CpuNormalizeLayerAcc</text>
 <polygon points="464,1586 469,1577 575,1577 580,1586 575,1595 469,1595 464,1586" stroke="#20208C" fill="white"/>
 <text x="472" y="1590" fill="black" font-family="Arial" font-size="10">tnn::CpuPoolLayerAcc</text>
 <polygon points="464,1607 469,1598 634,1598 639,1607 634,1616 469,1616 464,1607" stroke="#20208C" fill="white"/>
 <text x="472" y="1611" fill="black" font-family="Arial" font-size="10">tnn::CpuConstantOfShapeLayerAcc</text>
 <rect x="151" y="1679" width="143" height="18" stroke="#20208C" fill="white"/>
 <text x="154" y="1692" fill="black" font-family="Arial" font-size="10">std::vector SupportDataFormat</text>
 <rect x="324" y="1679" width="118" height="18" rx="8" stroke="#20208C" fill="white"/>
 <text x="334" y="1692" fill="black" font-family="Arial" font-size="10">LayerParam * param_</text>
 <rect x="300" y="1700" width="142" height="18" rx="8" stroke="#20208C" fill="white"/>
 <text x="310" y="1713" fill="black" font-family="Arial" font-size="10">LayerResource * resource_</text>
 <rect x="143" y="1703" width="75" height="18" stroke="#20208C" fill="white"/>
 <text x="146" y="1716" fill="black" font-family="Arial" font-size="10" xml:space='preserve'> ~CpuLayerAcc</text>
 <rect x="143" y="1724" width="51" height="18" stroke="#20208C" fill="white"/>
 <text x="146" y="1737" fill="black" font-family="Arial" font-size="10">Status Init</text>
 <rect x="143" y="1745" width="77" height="18" stroke="#20208C" fill="white"/>
 <text x="146" y="1758" fill="black" font-family="Arial" font-size="10">Status Reshape</text>
 <rect x="143" y="1766" width="74" height="18" stroke="#20208C" fill="white"/>
 <text x="146" y="1779" fill="black" font-family="Arial" font-size="10">Status Forward</text>
 <rect x="143" y="1787" width="134" height="18" stroke="#20208C" fill="white"/>
 <text x="146" y="1800" fill="black" font-family="Arial" font-size="10">Status ReloadConstantBlobs</text>
</svg>
