<?xml version="1.0"?>
<svg width="260" height="1232" xmlns="http://www.w3.org/2000/svg" version="1.1">
 <polyline points="78,616 80,616 80,16 84,16" stroke="#8C2020" fill="none"/>
 <polyline points="78,616 80,616 80,36 84,36" stroke="#8C2020" fill="none"/>
 <polyline points="78,616 80,616 80,56 84,56" stroke="#8C2020" fill="none"/>
 <polyline points="78,616 80,616 80,76 84,76" stroke="#8C2020" fill="none"/>
 <polyline points="78,616 80,616 80,96 84,96" stroke="#8C2020" fill="none"/>
 <polyline points="78,616 80,616 80,116 84,116" stroke="#8C2020" fill="none"/>
 <polyline points="78,616 80,616 80,136 84,136" stroke="#8C2020" fill="none"/>
 <polyline points="78,616 80,616 80,156 84,156" stroke="#8C2020" fill="none"/>
 <polyline points="78,616 80,616 80,176 84,176" stroke="#8C2020" fill="none"/>
 <polyline points="78,616 80,616 80,196 84,196" stroke="#8C2020" fill="none"/>
 <polyline points="78,616 80,616 80,216 84,216" stroke="#8C2020" fill="none"/>
 <polyline points="78,616 80,616 80,236 84,236" stroke="#8C2020" fill="none"/>
 <polyline points="78,616 80,616 80,256 84,256" stroke="#8C2020" fill="none"/>
 <polyline points="78,616 80,616 80,276 84,276" stroke="#8C2020" fill="none"/>
 <polyline points="78,616 80,616 80,296 84,296" stroke="#8C2020" fill="none"/>
 <polyline points="78,616 80,616 80,316 84,316" stroke="#8C2020" fill="none"/>
 <polyline points="78,616 80,616 80,336 84,336" stroke="#8C2020" fill="none"/>
 <polyline points="78,616 80,616 80,356 84,356" stroke="#8C2020" fill="none"/>
 <polyline points="78,616 80,616 80,376 84,376" stroke="#8C2020" fill="none"/>
 <polyline points="78,616 80,616 80,396 84,396" stroke="#8C2020" fill="none"/>
 <polyline points="78,616 80,616 80,416 84,416" stroke="#8C2020" fill="none"/>
 <polyline points="78,616 80,616 80,436 84,436" stroke="#8C2020" fill="none"/>
 <polyline points="78,616 80,616 80,456 84,456" stroke="#8C2020" fill="none"/>
 <polyline points="78,616 80,616 80,476 84,476" stroke="#8C2020" fill="none"/>
 <polyline points="78,616 80,616 80,496 84,496" stroke="#8C2020" fill="none"/>
 <polyline points="78,616 80,616 80,516 84,516" stroke="#8C2020" fill="none"/>
 <polyline points="78,616 80,616 80,536 84,536" stroke="#8C2020" fill="none"/>
 <polyline points="78,616 80,616 80,556 84,556" stroke="#8C2020" fill="none"/>
 <polyline points="78,616 80,616 80,576 84,576" stroke="#8C2020" fill="none"/>
 <polyline points="78,616 80,616 80,596 84,596" stroke="#8C2020" fill="none"/>
 <polyline points="78,616 80,616 84,616" stroke="#8C2020" fill="none"/>
 <polyline points="78,616 80,616 80,636 84,636" stroke="#8C2020" fill="none"/>
 <polyline points="78,616 80,616 80,656 84,656" stroke="#8C2020" fill="none"/>
 <polyline points="78,616 80,616 80,676 84,676" stroke="#8C2020" fill="none"/>
 <polyline points="78,616 80,616 80,696 84,696" stroke="#8C2020" fill="none"/>
 <polyline points="78,616 80,616 80,716 84,716" stroke="#8C2020" fill="none"/>
 <polyline points="78,616 80,616 80,736 84,736" stroke="#8C2020" fill="none"/>
 <polyline points="78,616 80,616 80,756 84,756" stroke="#8C2020" fill="none"/>
 <polyline points="78,616 80,616 80,776 84,776" stroke="#8C2020" fill="none"/>
 <polyline points="78,616 80,616 80,796 84,796" stroke="#8C2020" fill="none"/>
 <polyline points="78,616 80,616 80,816 84,816" stroke="#8C2020" fill="none"/>
 <polyline points="78,616 80,616 80,836 84,836" stroke="#8C2020" fill="none"/>
 <polyline points="78,616 80,616 80,856 84,856" stroke="#8C2020" fill="none"/>
 <polyline points="78,616 80,616 80,876 84,876" stroke="#8C2020" fill="none"/>
 <polyline points="78,616 80,616 80,896 84,896" stroke="#8C2020" fill="none"/>
 <polyline points="78,616 80,616 80,916 84,916" stroke="#8C2020" fill="none"/>
 <polyline points="78,616 80,616 80,936 84,936" stroke="#8C2020" fill="none"/>
 <polyline points="78,616 80,616 80,956 84,956" stroke="#8C2020" fill="none"/>
 <polyline points="78,616 80,616 80,976 84,976" stroke="#8C2020" fill="none"/>
 <polyline points="78,616 80,616 80,996 84,996" stroke="#8C2020" fill="none"/>
 <polyline points="78,616 80,616 80,1016 84,1016" stroke="#8C2020" fill="none"/>
 <polyline points="78,616 80,616 80,1036 84,1036" stroke="#8C2020" fill="none"/>
 <polyline points="78,616 80,616 80,1056 84,1056" stroke="#8C2020" fill="none"/>
 <polyline points="78,616 80,616 80,1076 84,1076" stroke="#8C2020" fill="none"/>
 <polyline points="78,616 80,616 80,1096 84,1096" stroke="#8C2020" fill="none"/>
 <polyline points="78,616 80,616 80,1116 84,1116" stroke="#8C2020" fill="none"/>
 <polyline points="78,616 80,616 80,1136 84,1136" stroke="#8C2020" fill="none"/>
 <polyline points="78,616 80,616 80,1156 84,1156" stroke="#8C2020" fill="none"/>
 <polyline points="78,616 80,616 80,1176 84,1176" stroke="#8C2020" fill="none"/>
 <polyline points="78,616 80,616 80,1196 84,1196" stroke="#8C2020" fill="none"/>
 <polyline points="78,616 80,616 80,1216 84,1216" stroke="#8C2020" fill="none"/>
 <polygon points="7,616 12,607 73,607 78,616 73,625 12,625 7,616" stroke="#20208C" fill="#FFFFFF"/>
 <text x="15" y="620" fill="#8C2020" font-family="Arial" font-size="10">LayerParam</text>
 <polygon points="84,16 89,7 200,7 205,16 200,25 89,25 84,16" stroke="#20208C" fill="#FFFFFF"/>
 <text x="92" y="20" fill="#000000" font-family="Arial" font-size="10">BatchNormLayerParam</text>
 <polygon points="84,36 89,27 212,27 217,36 212,45 89,45 84,36" stroke="#20208C" fill="#FFFFFF"/>
 <text x="92" y="40" fill="#000000" font-family="Arial" font-size="10">InstanceNormLayerParam</text>
 <polygon points="84,56 89,47 202,47 207,56 202,65 89,65 84,56" stroke="#20208C" fill="#FFFFFF"/>
 <text x="92" y="60" fill="#000000" font-family="Arial" font-size="10">GroupNormLayerParam</text>
 <polygon points="84,76 89,67 199,67 204,76 199,85 89,85 84,76" stroke="#20208C" fill="#FFFFFF"/>
 <text x="92" y="80" fill="#000000" font-family="Arial" font-size="10">LayerNormLayerParam</text>
 <polygon points="84,96 89,87 203,87 208,96 203,105 89,105 84,96" stroke="#20208C" fill="#FFFFFF"/>
 <text x="92" y="100" fill="#000000" font-family="Arial" font-size="10">GridSampleLayerParam</text>
 <polygon points="84,116 89,107 166,107 171,116 166,125 89,125 84,116" stroke="#20208C" fill="#FFFFFF"/>
 <text x="92" y="120" fill="#000000" font-family="Arial" font-size="10">TileLayerParam</text>
 <polygon points="84,136 89,127 173,127 178,136 173,145 89,145 84,136" stroke="#20208C" fill="#FFFFFF"/>
 <text x="92" y="140" fill="#000000" font-family="Arial" font-size="10">ConvLayerParam</text>
 <polygon points="84,156 89,147 168,147 173,156 168,165 89,165 84,156" stroke="#20208C" fill="#FFFFFF"/>
 <text x="92" y="160" fill="#000000" font-family="Arial" font-size="10">PadLayerParam</text>
 <polygon points="84,176 89,167 183,167 188,176 183,185 89,185 84,176" stroke="#20208C" fill="#FFFFFF"/>
 <text x="92" y="180" fill="#000000" font-family="Arial" font-size="10">PoolingLayerParam</text>
 <polygon points="84,196 89,187 198,187 203,196 198,205 89,205 84,196" stroke="#20208C" fill="#FFFFFF"/>
 <text x="92" y="200" fill="#000000" font-family="Arial" font-size="10">RoiPoolingLayerParam</text>
 <polygon points="84,216 89,207 195,207 200,216 195,225 89,225 84,216" stroke="#20208C" fill="#FFFFFF"/>
 <text x="92" y="220" fill="#000000" font-family="Arial" font-size="10">UpsampleLayerParam</text>
 <polygon points="84,236 89,227 179,227 184,236 179,245 89,245 84,236" stroke="#20208C" fill="#FFFFFF"/>
 <text x="92" y="240" fill="#000000" font-family="Arial" font-size="10">RangeLayerParam</text>
 <polygon points="84,256 89,247 186,247 191,256 186,265 89,265 84,256" stroke="#20208C" fill="#FFFFFF"/>
 <text x="92" y="260" fill="#000000" font-family="Arial" font-size="10">SoftmaxLayerParam</text>
 <polygon points="84,276 89,267 169,267 174,276 169,285 89,285 84,276" stroke="#20208C" fill="#FFFFFF"/>
 <text x="92" y="280" fill="#000000" font-family="Arial" font-size="10">PowLayerParam</text>
 <polygon points="84,296 89,287 195,287 200,296 195,305 89,305 84,296" stroke="#20208C" fill="#FFFFFF"/>
 <text x="92" y="300" fill="#000000" font-family="Arial" font-size="10">NormalizeLayerParam</text>
 <polygon points="84,316 89,307 190,307 195,316 190,325 89,325 84,316" stroke="#20208C" fill="#FFFFFF"/>
 <text x="92" y="320" fill="#000000" font-family="Arial" font-size="10">ReshapeLayerParam</text>
 <polygon points="84,336 89,327 188,327 193,336 188,345 89,345 84,336" stroke="#20208C" fill="#FFFFFF"/>
 <text x="92" y="340" fill="#000000" font-family="Arial" font-size="10">PermuteLayerParam</text>
 <polygon points="84,356 89,347 170,347 175,356 170,365 89,365 84,356" stroke="#20208C" fill="#FFFFFF"/>
 <text x="92" y="360" fill="#000000" font-family="Arial" font-size="10">CastLayerParam</text>
 <polygon points="84,376 89,367 195,367 200,376 195,385 89,385 84,376" stroke="#20208C" fill="#FFFFFF"/>
 <text x="92" y="380" fill="#000000" font-family="Arial" font-size="10">HistogramLayerParam</text>
 <polygon points="84,396 89,387 184,387 189,396 184,405 89,405 84,396" stroke="#20208C" fill="#FFFFFF"/>
 <text x="92" y="400" fill="#000000" font-family="Arial" font-size="10">OneHotLayerParam</text>
 <polygon points="84,416 89,407 181,407 186,416 181,425 89,425 84,416" stroke="#20208C" fill="#FFFFFF"/>
 <text x="92" y="420" fill="#000000" font-family="Arial" font-size="10">BitShiftLayerParam</text>
 <polygon points="84,436 89,427 175,427 180,436 175,445 89,445 84,436" stroke="#20208C" fill="#FFFFFF"/>
 <text x="92" y="440" fill="#000000" font-family="Arial" font-size="10">ScaleLayerParam</text>
 <polygon points="84,456 89,447 176,447 181,456 176,465 89,465 84,456" stroke="#20208C" fill="#FFFFFF"/>
 <text x="92" y="460" fill="#000000" font-family="Arial" font-size="10">SplitVLayerParam</text>
 <polygon points="84,476 89,467 184,467 189,476 184,485 89,485 84,476" stroke="#20208C" fill="#FFFFFF"/>
 <text x="92" y="480" fill="#000000" font-family="Arial" font-size="10">ReduceLayerParam</text>
 <polygon points="84,496 89,487 207,487 212,496 207,505 89,505 84,496" stroke="#20208C" fill="#FFFFFF"/>
 <text x="92" y="500" fill="#000000" font-family="Arial" font-size="10">InnerProductLayerParam</text>
 <polygon points="84,516 89,507 181,507 186,516 181,525 89,525 84,516" stroke="#20208C" fill="#FFFFFF"/>
 <text x="92" y="520" fill="#000000" font-family="Arial" font-size="10">ConcatLayerParam</text>
 <polygon points="84,536 89,527 177,527 182,536 177,545 89,545 84,536" stroke="#20208C" fill="#FFFFFF"/>
 <text x="92" y="540" fill="#000000" font-family="Arial" font-size="10">PReluLayerParam</text>
 <polygon points="84,556 89,547 164,547 169,556 164,565 89,565 84,556" stroke="#20208C" fill="#FFFFFF"/>
 <text x="92" y="560" fill="#000000" font-family="Arial" font-size="10">EluLayerParam</text>
 <polygon points="84,576 89,567 167,567 172,576 167,585 89,585 84,576" stroke="#20208C" fill="#FFFFFF"/>
 <text x="92" y="580" fill="#000000" font-family="Arial" font-size="10">ClipLayerParam</text>
 <polygon points="84,596 89,587 170,587 175,596 170,605 89,605 84,596" stroke="#20208C" fill="#FFFFFF"/>
 <text x="92" y="600" fill="#000000" font-family="Arial" font-size="10">SeluLayerParam</text>
 <polygon points="84,616 89,607 198,607 203,616 198,625 89,625 84,616" stroke="#20208C" fill="#FFFFFF"/>
 <text x="92" y="620" fill="#000000" font-family="Arial" font-size="10">StrideSliceLayerParam</text>
 <polygon points="84,636 89,627 210,627 215,636 210,645 89,645 84,636" stroke="#20208C" fill="#FFFFFF"/>
 <text x="92" y="640" fill="#000000" font-family="Arial" font-size="10">StrideSliceV2LayerParam</text>
 <polygon points="84,656 89,647 172,647 177,656 172,665 89,665 84,656" stroke="#20208C" fill="#FFFFFF"/>
 <text x="92" y="660" fill="#000000" font-family="Arial" font-size="10">SliceLayerParam</text>
 <polygon points="84,676 89,667 209,667 214,676 209,685 89,685 84,676" stroke="#20208C" fill="#FFFFFF"/>
 <text x="92" y="680" fill="#000000" font-family="Arial" font-size="10">ElementWiseLayerParam</text>
 <polygon points="84,696 89,687 208,687 213,696 208,705 89,705 84,696" stroke="#20208C" fill="#FFFFFF"/>
 <text x="92" y="700" fill="#000000" font-family="Arial" font-size="10">HardSigmoidLayerParam</text>
 <polygon points="84,716 89,707 191,707 196,716 191,725 89,725 84,716" stroke="#20208C" fill="#FFFFFF"/>
 <text x="92" y="720" fill="#000000" font-family="Arial" font-size="10">ReformatLayerParam</text>
 <polygon points="84,736 89,727 181,727 186,736 181,745 89,745 84,736" stroke="#20208C" fill="#FFFFFF"/>
 <text x="92" y="740" fill="#000000" font-family="Arial" font-size="10">ShuffleLayerParam</text>
 <polygon points="84,756 89,747 188,747 193,756 188,765 89,765 84,756" stroke="#20208C" fill="#FFFFFF"/>
 <text x="92" y="760" fill="#000000" font-family="Arial" font-size="10">PriorBoxLayerParam</text>
 <polygon points="84,776 89,767 222,767 227,776 222,785 89,785 84,776" stroke="#20208C" fill="#FFFFFF"/>
 <text x="92" y="780" fill="#000000" font-family="Arial" font-size="10">DetectionOutputLayerParam</text>
 <polygon points="84,796 89,787 248,787 253,796 248,805 89,805 84,796" stroke="#20208C" fill="#FFFFFF"/>
 <text x="92" y="800" fill="#000000" font-family="Arial" font-size="10">DetectionPostProcessLayerParam</text>
 <polygon points="84,816 89,807 170,807 175,816 170,825 89,825 84,816" stroke="#20208C" fill="#FFFFFF"/>
 <text x="92" y="820" fill="#000000" font-family="Arial" font-size="10">LRNLayerParam</text>
 <polygon points="84,836 89,827 177,827 182,836 177,845 89,845 84,836" stroke="#20208C" fill="#FFFFFF"/>
 <text x="92" y="840" fill="#000000" font-family="Arial" font-size="10">ReorgLayerParam</text>
 <polygon points="84,856 89,847 176,847 181,856 176,865 89,865 84,856" stroke="#20208C" fill="#FFFFFF"/>
 <text x="92" y="860" fill="#000000" font-family="Arial" font-size="10">ConstLayerParam</text>
 <polygon points="84,876 89,867 197,867 202,876 197,885 89,885 84,876" stroke="#20208C" fill="#FFFFFF"/>
 <text x="92" y="880" fill="#000000" font-family="Arial" font-size="10">SignedMulLayerParam</text>
 <polygon points="84,896 89,887 189,887 194,896 189,905 89,905 84,896" stroke="#20208C" fill="#FFFFFF"/>
 <text x="92" y="900" fill="#000000" font-family="Arial" font-size="10">SqueezeLayerParam</text>
 <polygon points="84,916 89,907 211,907 216,916 211,925 89,925 84,916" stroke="#20208C" fill="#FFFFFF"/>
 <text x="92" y="920" fill="#000000" font-family="Arial" font-size="10">ArgMaxOrMinLayerParam</text>
 <polygon points="84,936 89,927 202,927 207,936 202,945 89,945 84,936" stroke="#20208C" fill="#FFFFFF"/>
 <text x="92" y="940" fill="#000000" font-family="Arial" font-size="10">PixelShuffleLayerParam</text>
 <polygon points="84,956 89,947 180,947 185,956 180,965 89,965 84,956" stroke="#20208C" fill="#FFFFFF"/>
 <text x="92" y="960" fill="#000000" font-family="Arial" font-size="10">GatherLayerParam</text>
 <polygon points="84,976 89,967 195,967 200,976 195,985 89,985 84,976" stroke="#20208C" fill="#FFFFFF"/>
 <text x="92" y="980" fill="#000000" font-family="Arial" font-size="10">GatherNDLayerParam</text>
 <polygon points="84,996 89,987 205,987 210,996 205,1005 89,1005 84,996" stroke="#20208C" fill="#FFFFFF"/>
 <text x="92" y="1000" fill="#000000" font-family="Arial" font-size="10">LSTMONNXLayerParam</text>
 <polygon points="84,1016 89,1007 184,1007 189,1016 184,1025 89,1025 84,1016" stroke="#20208C" fill="#FFFFFF"/>
 <text x="92" y="1020" fill="#000000" font-family="Arial" font-size="10">ExpandLayerParam</text>
 <polygon points="84,1036 89,1027 183,1027 188,1036 183,1045 89,1045 84,1036" stroke="#20208C" fill="#FFFFFF"/>
 <text x="92" y="1040" fill="#000000" font-family="Arial" font-size="10">MatMulLayerParam</text>
 <polygon points="84,1056 89,1047 187,1047 192,1056 187,1065 89,1065 84,1056" stroke="#20208C" fill="#FFFFFF"/>
 <text x="92" y="1060" fill="#000000" font-family="Arial" font-size="10">RoiAlignLayerParam</text>
 <polygon points="84,1076 89,1067 180,1067 185,1076 180,1085 89,1085 84,1076" stroke="#20208C" fill="#FFFFFF"/>
 <text x="92" y="1080" fill="#000000" font-family="Arial" font-size="10">FlattenLayerParam</text>
 <polygon points="84,1096 89,1087 183,1087 188,1096 183,1105 89,1105 84,1096" stroke="#20208C" fill="#FFFFFF"/>
 <text x="92" y="1100" fill="#000000" font-family="Arial" font-size="10">EinsumLayerParam</text>
 <polygon points="84,1116 89,1107 173,1107 178,1116 173,1125 89,1125 84,1116" stroke="#20208C" fill="#FFFFFF"/>
 <text x="92" y="1120" fill="#000000" font-family="Arial" font-size="10">TopKLayerParam</text>
 <polygon points="84,1136 89,1127 243,1127 248,1136 243,1145 89,1145 84,1136" stroke="#20208C" fill="#FFFFFF"/>
 <text x="92" y="1140" fill="#000000" font-family="Arial" font-size="10">NonMaxSuppressionLayerParam</text>
 <polygon points="84,1156 89,1147 181,1147 186,1156 181,1165 89,1165 84,1156" stroke="#20208C" fill="#FFFFFF"/>
 <text x="92" y="1160" fill="#000000" font-family="Arial" font-size="10">ScatterLayerParam</text>
 <polygon points="84,1176 89,1167 223,1167 228,1176 223,1185 89,1185 84,1176" stroke="#20208C" fill="#FFFFFF"/>
 <text x="92" y="1180" fill="#000000" font-family="Arial" font-size="10">ScatterElementsLayerParam</text>
 <polygon points="84,1196 89,1187 203,1187 208,1196 203,1205 89,1205 84,1196" stroke="#20208C" fill="#FFFFFF"/>
 <text x="92" y="1200" fill="#000000" font-family="Arial" font-size="10">LogSoftmaxLayerParam</text>
 <polygon points="84,1216 89,1207 170,1207 175,1216 170,1225 89,1225 84,1216" stroke="#20208C" fill="#FFFFFF"/>
 <text x="92" y="1220" fill="#000000" font-family="Arial" font-size="10">GLULayerParam</text>
</svg>
