<?xml version="1.0"?>
<svg width="330" height="1692" xmlns="http://www.w3.org/2000/svg" version="1.1">
 <polyline points="131,846 133,846 133,16 137,16" stroke="#8C2020" fill="none"/>
 <polyline points="131,846 133,846 133,36 137,36" stroke="#8C2020" fill="none"/>
 <polyline points="131,846 133,846 133,56 137,56" stroke="#8C2020" fill="none"/>
 <polyline points="131,846 133,846 133,76 137,76" stroke="#8C2020" fill="none"/>
 <polyline points="131,846 133,846 133,96 137,96" stroke="#8C2020" fill="none"/>
 <polyline points="131,846 133,846 133,116 137,116" stroke="#8C2020" fill="none"/>
 <polyline points="131,846 133,846 133,136 137,136" stroke="#8C2020" fill="none"/>
 <polyline points="131,846 133,846 133,156 137,156" stroke="#8C2020" fill="none"/>
 <polyline points="131,846 133,846 133,176 137,176" stroke="#8C2020" fill="none"/>
 <polyline points="131,846 133,846 133,196 137,196" stroke="#8C2020" fill="none"/>
 <polyline points="131,846 133,846 133,216 137,216" stroke="#8C2020" fill="none"/>
 <polyline points="131,846 133,846 133,236 137,236" stroke="#8C2020" fill="none"/>
 <polyline points="131,846 133,846 133,256 137,256" stroke="#8C2020" fill="none"/>
 <polyline points="131,846 133,846 133,276 137,276" stroke="#8C2020" fill="none"/>
 <polyline points="131,846 133,846 133,296 137,296" stroke="#8C2020" fill="none"/>
 <polyline points="131,846 133,846 133,316 137,316" stroke="#8C2020" fill="none"/>
 <polyline points="131,846 133,846 133,336 137,336" stroke="#8C2020" fill="none"/>
 <polyline points="131,846 133,846 133,356 137,356" stroke="#8C2020" fill="none"/>
 <polyline points="131,846 133,846 133,376 137,376" stroke="#8C2020" fill="none"/>
 <polyline points="131,846 133,846 133,396 137,396" stroke="#8C2020" fill="none"/>
 <polyline points="131,846 133,846 133,416 137,416" stroke="#8C2020" fill="none"/>
 <polyline points="131,846 133,846 133,436 137,436" stroke="#8C2020" fill="none"/>
 <polyline points="131,846 133,846 133,456 137,456" stroke="#8C2020" fill="none"/>
 <polyline points="131,846 133,846 133,476 137,476" stroke="#8C2020" fill="none"/>
 <polyline points="131,846 133,846 133,496 137,496" stroke="#8C2020" fill="none"/>
 <polyline points="131,846 133,846 133,516 137,516" stroke="#8C2020" fill="none"/>
 <polyline points="131,846 133,846 133,536 137,536" stroke="#8C2020" fill="none"/>
 <polyline points="131,846 133,846 133,556 137,556" stroke="#8C2020" fill="none"/>
 <polyline points="131,846 133,846 133,576 137,576" stroke="#8C2020" fill="none"/>
 <polyline points="131,846 133,846 133,596 137,596" stroke="#8C2020" fill="none"/>
 <polyline points="131,846 133,846 133,616 137,616" stroke="#8C2020" fill="none"/>
 <polyline points="131,846 133,846 133,636 137,636" stroke="#8C2020" fill="none"/>
 <polyline points="131,846 133,846 133,656 137,656" stroke="#8C2020" fill="none"/>
 <polyline points="131,846 133,846 133,676 137,676" stroke="#8C2020" fill="none"/>
 <polyline points="131,846 133,846 133,696 137,696" stroke="#8C2020" fill="none"/>
 <polyline points="131,846 133,846 133,716 137,716" stroke="#8C2020" fill="none"/>
 <polyline points="131,846 133,846 133,736 137,736" stroke="#8C2020" fill="none"/>
 <polyline points="131,846 133,846 133,756 137,756" stroke="#8C2020" fill="none"/>
 <polyline points="131,846 133,846 133,776 137,776" stroke="#8C2020" fill="none"/>
 <polyline points="131,846 133,846 133,796 137,796" stroke="#8C2020" fill="none"/>
 <polyline points="131,846 133,846 133,816 137,816" stroke="#8C2020" fill="none"/>
 <polyline points="131,846 133,846 133,836 137,836" stroke="#8C2020" fill="none"/>
 <polyline points="131,846 133,846 133,856 137,856" stroke="#8C2020" fill="none"/>
 <polyline points="131,846 133,846 133,876 137,876" stroke="#8C2020" fill="none"/>
 <polyline points="131,846 133,846 133,896 137,896" stroke="#8C2020" fill="none"/>
 <polyline points="131,846 133,846 133,916 137,916" stroke="#8C2020" fill="none"/>
 <polyline points="131,846 133,846 133,936 137,936" stroke="#8C2020" fill="none"/>
 <polyline points="131,846 133,846 133,956 137,956" stroke="#8C2020" fill="none"/>
 <polyline points="131,846 133,846 133,976 137,976" stroke="#8C2020" fill="none"/>
 <polyline points="131,846 133,846 133,996 137,996" stroke="#8C2020" fill="none"/>
 <polyline points="131,846 133,846 133,1016 137,1016" stroke="#8C2020" fill="none"/>
 <polyline points="131,846 133,846 133,1036 137,1036" stroke="#8C2020" fill="none"/>
 <polyline points="131,846 133,846 133,1056 137,1056" stroke="#8C2020" fill="none"/>
 <polyline points="131,846 133,846 133,1076 137,1076" stroke="#8C2020" fill="none"/>
 <polyline points="131,846 133,846 133,1096 137,1096" stroke="#8C2020" fill="none"/>
 <polyline points="131,846 133,846 133,1116 137,1116" stroke="#8C2020" fill="none"/>
 <polyline points="131,846 133,846 133,1136 137,1136" stroke="#8C2020" fill="none"/>
 <polyline points="131,846 133,846 133,1156 137,1156" stroke="#8C2020" fill="none"/>
 <polyline points="131,846 133,846 133,1176 137,1176" stroke="#8C2020" fill="none"/>
 <polyline points="131,846 133,846 133,1196 137,1196" stroke="#8C2020" fill="none"/>
 <polyline points="131,846 133,846 133,1216 137,1216" stroke="#8C2020" fill="none"/>
 <polyline points="131,846 133,846 133,1236 137,1236" stroke="#8C2020" fill="none"/>
 <polyline points="131,846 133,846 133,1256 137,1256" stroke="#8C2020" fill="none"/>
 <polyline points="131,846 133,846 133,1276 137,1276" stroke="#8C2020" fill="none"/>
 <polyline points="131,846 133,846 133,1296 137,1296" stroke="#8C2020" fill="none"/>
 <polyline points="131,846 133,846 133,1316 137,1316" stroke="#8C2020" fill="none"/>
 <polyline points="131,846 133,846 133,1336 137,1336" stroke="#8C2020" fill="none"/>
 <polyline points="131,846 133,846 133,1356 137,1356" stroke="#8C2020" fill="none"/>
 <polyline points="131,846 133,846 133,1376 137,1376" stroke="#8C2020" fill="none"/>
 <polyline points="131,846 133,846 133,1396 137,1396" stroke="#8C2020" fill="none"/>
 <polyline points="131,846 133,846 133,1416 137,1416" stroke="#8C2020" fill="none"/>
 <polyline points="131,846 133,846 133,1436 137,1436" stroke="#8C2020" fill="none"/>
 <polyline points="131,846 133,846 133,1456 137,1456" stroke="#8C2020" fill="none"/>
 <polyline points="131,846 133,846 133,1476 137,1476" stroke="#8C2020" fill="none"/>
 <polyline points="131,846 133,846 133,1496 137,1496" stroke="#8C2020" fill="none"/>
 <polyline points="131,846 133,846 133,1516 137,1516" stroke="#8C2020" fill="none"/>
 <polyline points="131,846 133,846 133,1536 137,1536" stroke="#8C2020" fill="none"/>
 <polyline points="131,846 133,846 133,1556 137,1556" stroke="#8C2020" fill="none"/>
 <polyline points="131,846 133,846 133,1576 137,1576" stroke="#8C2020" fill="none"/>
 <polyline points="131,846 133,846 133,1596 137,1596" stroke="#8C2020" fill="none"/>
 <polyline points="131,846 133,846 133,1616 137,1616" stroke="#8C2020" fill="none"/>
 <polyline points="131,846 133,846 133,1636 137,1636" stroke="#8C2020" fill="none"/>
 <polyline points="131,846 133,846 133,1656 137,1656" stroke="#8C2020" fill="none"/>
 <polyline points="131,846 133,846 133,1676 137,1676" stroke="#8C2020" fill="none"/>
 <polygon points="7,846 12,837 126,837 131,846 126,855 12,855 7,846" stroke="#20208C" fill="#FFFFFF"/>
 <text x="15" y="850" fill="#8C2020" font-family="Arial" font-size="10">AbstractLayerInterpreter</text>
 <polygon points="137,16 142,7 265,7 270,16 265,25 142,25 137,16" stroke="#20208C" fill="#FFFFFF"/>
 <text x="145" y="20" fill="#000000" font-family="Arial" font-size="10">UpsampleLayerInterpreter</text>
 <polygon points="137,36 142,27 267,27 272,36 267,45 142,45 137,36" stroke="#20208C" fill="#FFFFFF"/>
 <text x="145" y="40" fill="#000000" font-family="Arial" font-size="10">SignedMulLayerInterpreter</text>
 <polygon points="137,56 142,47 234,47 239,56 234,65 142,65 137,56" stroke="#20208C" fill="#FFFFFF"/>
 <text x="145" y="60" fill="#000000" font-family="Arial" font-size="10">DivLayerInterpreter</text>
 <polygon points="137,76 142,67 312,67 317,76 312,85 142,85 137,76" stroke="#20208C" fill="#FFFFFF"/>
 <text x="145" y="80" fill="#000000" font-family="Arial" font-size="10">NonMaxSuppressionLayerInterpreter</text>
 <polygon points="137,96 142,87 253,87 258,96 253,105 142,105 137,96" stroke="#20208C" fill="#FFFFFF"/>
 <text x="145" y="100" fill="#000000" font-family="Arial" font-size="10">ExpandLayerInterpreter</text>
 <polygon points="137,116 142,107 272,107 277,116 272,125 142,125 137,116" stroke="#20208C" fill="#FFFFFF"/>
 <text x="145" y="120" fill="#000000" font-family="Arial" font-size="10">GridSampleLayerInterpreter</text>
 <polygon points="137,136 142,127 257,127 262,136 257,145 142,145 137,136" stroke="#20208C" fill="#FFFFFF"/>
 <text x="145" y="140" fill="#000000" font-family="Arial" font-size="10">PermuteLayerInterpreter</text>
 <polygon points="137,156 142,147 235,147 240,156 235,165 142,165 137,156" stroke="#20208C" fill="#FFFFFF"/>
 <text x="145" y="160" fill="#000000" font-family="Arial" font-size="10">TileLayerInterpreter</text>
 <polygon points="137,176 142,167 292,167 297,176 292,185 142,185 137,176" stroke="#20208C" fill="#FFFFFF"/>
 <text x="145" y="180" fill="#000000" font-family="Arial" font-size="10">DetectionOutputLayerInterpreter</text>
 <polygon points="137,196 142,187 265,187 270,196 265,205 142,205 137,196" stroke="#20208C" fill="#FFFFFF"/>
 <text x="145" y="200" fill="#000000" font-family="Arial" font-size="10">GatherNDLayerInterpreter</text>
 <polygon points="137,216 142,207 245,207 250,216 245,225 142,225 137,216" stroke="#20208C" fill="#FFFFFF"/>
 <text x="145" y="220" fill="#000000" font-family="Arial" font-size="10">ScaleLayerInterpreter</text>
 <polygon points="137,236 142,227 240,227 245,236 240,245 142,245 137,236" stroke="#20208C" fill="#FFFFFF"/>
 <text x="145" y="240" fill="#000000" font-family="Arial" font-size="10">CastLayerInterpreter</text>
 <polygon points="137,256 142,247 269,247 274,256 269,265 142,265 137,256" stroke="#20208C" fill="#FFFFFF"/>
 <text x="145" y="260" fill="#000000" font-family="Arial" font-size="10">LayerNormLayerInterpreter</text>
 <polygon points="137,276 142,267 247,267 252,276 247,285 142,285 137,276" stroke="#20208C" fill="#FFFFFF"/>
 <text x="145" y="280" fill="#000000" font-family="Arial" font-size="10">ReorgLayerInterpreter</text>
 <polygon points="137,296 142,287 246,287 251,296 246,305 142,305 137,296" stroke="#20208C" fill="#FFFFFF"/>
 <text x="145" y="300" fill="#000000" font-family="Arial" font-size="10">SplitVLayerInterpreter</text>
 <polygon points="137,316 142,307 267,307 272,316 267,325 142,325 137,316" stroke="#20208C" fill="#FFFFFF"/>
 <text x="145" y="320" fill="#000000" font-family="Arial" font-size="10">ReduceOpLayerInterpreter</text>
 <polygon points="137,336 142,327 262,327 267,336 262,345 142,345 137,336" stroke="#20208C" fill="#FFFFFF"/>
 <text x="145" y="340" fill="#000000" font-family="Arial" font-size="10">HdrGuideLayerInterpreter</text>
 <polygon points="137,356 142,347 280,347 285,356 280,365 142,365 137,356" stroke="#20208C" fill="#FFFFFF"/>
 <text x="145" y="360" fill="#000000" font-family="Arial" font-size="10">StrideSliceV2LayerInterpreter</text>
 <polygon points="137,376 142,367 250,367 255,376 250,385 142,385 137,376" stroke="#20208C" fill="#FFFFFF"/>
 <text x="145" y="380" fill="#000000" font-family="Arial" font-size="10">ShuffleLayerInterpreter</text>
 <polygon points="137,396 142,387 251,387 256,396 251,405 142,405 137,396" stroke="#20208C" fill="#FFFFFF"/>
 <text x="145" y="400" fill="#000000" font-family="Arial" font-size="10">ScatterLayerInterpreter</text>
 <polygon points="137,416 142,407 237,407 242,416 237,425 142,425 137,416" stroke="#20208C" fill="#FFFFFF"/>
 <text x="145" y="420" fill="#000000" font-family="Arial" font-size="10">SubLayerInterpreter</text>
 <polygon points="137,436 142,427 239,427 244,436 239,445 142,445 137,436" stroke="#20208C" fill="#FFFFFF"/>
 <text x="145" y="440" fill="#000000" font-family="Arial" font-size="10">SizeLayerInterpreter</text>
 <polygon points="137,456 142,447 303,447 308,456 303,465 142,465 137,456" stroke="#20208C" fill="#FFFFFF"/>
 <text x="145" y="460" fill="#000000" font-family="Arial" font-size="10">SquaredDifferenceLayerInterpreter</text>
 <polygon points="137,476 142,467 247,467 252,476 247,485 142,485 137,476" stroke="#20208C" fill="#FFFFFF"/>
 <text x="145" y="480" fill="#000000" font-family="Arial" font-size="10">PReluLayerInterpreter</text>
 <polygon points="137,496 142,487 265,487 270,496 265,505 142,505 137,496" stroke="#20208C" fill="#FFFFFF"/>
 <text x="145" y="500" fill="#000000" font-family="Arial" font-size="10">HistogramLayerInterpreter</text>
 <polygon points="137,516 142,507 237,507 242,516 237,525 142,525 137,516" stroke="#20208C" fill="#FFFFFF"/>
 <text x="145" y="520" fill="#000000" font-family="Arial" font-size="10">PadLayerInterpreter</text>
 <polygon points="137,536 142,527 282,527 287,536 282,545 142,545 137,536" stroke="#20208C" fill="#FFFFFF"/>
 <text x="145" y="540" fill="#000000" font-family="Arial" font-size="10">InstanceNormLayerInterpreter</text>
 <polygon points="137,556 142,547 266,547 271,556 266,565 142,565 137,556" stroke="#20208C" fill="#FFFFFF"/>
 <text x="145" y="560" fill="#000000" font-family="Arial" font-size="10">Pooling3DLayerInterpreter</text>
 <polygon points="137,576 142,567 240,567 245,576 240,585 142,585 137,576" stroke="#20208C" fill="#FFFFFF"/>
 <text x="145" y="580" fill="#000000" font-family="Arial" font-size="10">GLULayerInterpreter</text>
 <polygon points="137,596 142,587 246,587 251,596 246,605 142,605 137,596" stroke="#20208C" fill="#FFFFFF"/>
 <text x="145" y="600" fill="#000000" font-family="Arial" font-size="10">ConstLayerInterpreter</text>
 <polygon points="137,616 142,607 249,607 254,616 249,625 142,625 137,616" stroke="#20208C" fill="#FFFFFF"/>
 <text x="145" y="620" fill="#000000" font-family="Arial" font-size="10">RangeLayerInterpreter</text>
 <polygon points="137,636 142,627 253,627 258,636 253,645 142,645 137,636" stroke="#20208C" fill="#FFFFFF"/>
 <text x="145" y="640" fill="#000000" font-family="Arial" font-size="10">GreaterLayerInterpreter</text>
 <polygon points="137,656 142,647 254,647 259,656 254,665 142,665 137,656" stroke="#20208C" fill="#FFFFFF"/>
 <text x="145" y="660" fill="#000000" font-family="Arial" font-size="10">OneHotLayerInterpreter</text>
 <polygon points="137,676 142,667 270,667 275,676 270,685 142,685 137,676" stroke="#20208C" fill="#FFFFFF"/>
 <text x="145" y="680" fill="#000000" font-family="Arial" font-size="10">UnsqueezeLayerInterpreter</text>
 <polygon points="137,696 142,687 259,687 264,696 259,705 142,705 137,696" stroke="#20208C" fill="#FFFFFF"/>
 <text x="145" y="700" fill="#000000" font-family="Arial" font-size="10">SqueezeLayerInterpreter</text>
 <polygon points="137,716 142,707 268,707 273,716 268,725 142,725 137,716" stroke="#20208C" fill="#FFFFFF"/>
 <text x="145" y="720" fill="#000000" font-family="Arial" font-size="10">RoiPoolingLayerInterpreter</text>
 <polygon points="137,736 142,727 242,727 247,736 242,745 142,745 137,736" stroke="#20208C" fill="#FFFFFF"/>
 <text x="145" y="740" fill="#000000" font-family="Arial" font-size="10">TopKLayerInterpreter</text>
 <polygon points="137,756 142,747 237,747 242,756 237,765 142,765 137,756" stroke="#20208C" fill="#FFFFFF"/>
 <text x="145" y="760" fill="#000000" font-family="Arial" font-size="10">AddLayerInterpreter</text>
 <polygon points="137,776 142,767 258,767 263,776 258,785 142,785 137,776" stroke="#20208C" fill="#FFFFFF"/>
 <text x="145" y="780" fill="#000000" font-family="Arial" font-size="10">PriorBoxLayerInterpreter</text>
 <polygon points="137,796 142,787 265,787 270,796 265,805 142,805 137,796" stroke="#20208C" fill="#FFFFFF"/>
 <text x="145" y="800" fill="#000000" font-family="Arial" font-size="10">BlobScaleLayerInterpreter</text>
 <polygon points="137,816 142,807 240,807 245,816 240,825 142,825 137,816" stroke="#20208C" fill="#FFFFFF"/>
 <text x="145" y="820" fill="#000000" font-family="Arial" font-size="10">SeluLayerInterpreter</text>
 <polygon points="137,836 142,827 253,827 258,836 253,845 142,845 137,836" stroke="#20208C" fill="#FFFFFF"/>
 <text x="145" y="840" fill="#000000" font-family="Arial" font-size="10">EinsumLayerInterpreter</text>
 <polygon points="137,856 142,847 256,847 261,856 256,865 142,865 137,856" stroke="#20208C" fill="#FFFFFF"/>
 <text x="145" y="860" fill="#000000" font-family="Arial" font-size="10">Conv1DLayerInterpreter</text>
 <polygon points="137,876 142,867 239,867 244,876 239,885 142,885 137,876" stroke="#20208C" fill="#FFFFFF"/>
 <text x="145" y="880" fill="#000000" font-family="Arial" font-size="10">PowLayerInterpreter</text>
 <polygon points="137,896 142,887 256,887 261,896 256,905 142,905 137,896" stroke="#20208C" fill="#FFFFFF"/>
 <text x="145" y="900" fill="#000000" font-family="Arial" font-size="10">SoftmaxLayerInterpreter</text>
 <polygon points="137,916 142,907 234,907 239,916 234,925 142,925 137,916" stroke="#20208C" fill="#FFFFFF"/>
 <text x="145" y="920" fill="#000000" font-family="Arial" font-size="10">EluLayerInterpreter</text>
 <polygon points="137,936 142,927 251,927 256,936 251,945 142,945 137,936" stroke="#20208C" fill="#FFFFFF"/>
 <text x="145" y="940" fill="#000000" font-family="Arial" font-size="10">BitShiftLayerInterpreter</text>
 <polygon points="137,956 142,947 261,947 266,956 261,965 142,965 137,956" stroke="#20208C" fill="#FFFFFF"/>
 <text x="145" y="960" fill="#000000" font-family="Arial" font-size="10">ReformatLayerInterpreter</text>
 <polygon points="137,976 142,967 250,967 255,976 250,985 142,985 137,976" stroke="#20208C" fill="#FFFFFF"/>
 <text x="145" y="980" fill="#000000" font-family="Arial" font-size="10">FlattenLayerInterpreter</text>
 <polygon points="137,996 142,987 273,987 278,996 273,1005 142,1005 137,996" stroke="#20208C" fill="#FFFFFF"/>
 <text x="145" y="1000" fill="#000000" font-family="Arial" font-size="10">LogSoftmaxLayerInterpreter</text>
 <polygon points="137,1016 142,1007 256,1007 261,1016 256,1025 142,1025 137,1016" stroke="#20208C" fill="#FFFFFF"/>
 <text x="145" y="1020" fill="#000000" font-family="Arial" font-size="10">Conv3DLayerInterpreter</text>
 <polygon points="137,1036 142,1027 272,1027 277,1036 272,1045 142,1045 137,1036" stroke="#20208C" fill="#FFFFFF"/>
 <text x="145" y="1040" fill="#000000" font-family="Arial" font-size="10">PixelShuffleLayerInterpreter</text>
 <polygon points="137,1056 142,1047 275,1047 280,1056 275,1065 142,1065 137,1056" stroke="#20208C" fill="#FFFFFF"/>
 <text x="145" y="1060" fill="#000000" font-family="Arial" font-size="10">LSTMONNXLayerInterpreter</text>
 <polygon points="137,1076 142,1067 267,1067 272,1076 267,1085 142,1085 137,1076" stroke="#20208C" fill="#FFFFFF"/>
 <text x="145" y="1080" fill="#000000" font-family="Arial" font-size="10">StrideSliceLayerInterpreter</text>
 <polygon points="137,1096 142,1087 277,1087 282,1096 277,1105 142,1105 137,1096" stroke="#20208C" fill="#FFFFFF"/>
 <text x="145" y="1100" fill="#000000" font-family="Arial" font-size="10">InnerProductLayerInterpreter</text>
 <polygon points="137,1116 142,1107 237,1107 242,1116 237,1125 142,1125 137,1116" stroke="#20208C" fill="#FFFFFF"/>
 <text x="145" y="1120" fill="#000000" font-family="Arial" font-size="10">AndLayerInterpreter</text>
 <polygon points="137,1136 142,1127 257,1127 262,1136 257,1145 142,1145 137,1136" stroke="#20208C" fill="#FFFFFF"/>
 <text x="145" y="1140" fill="#000000" font-family="Arial" font-size="10">BiasAddLayerInterpreter</text>
 <polygon points="137,1156 142,1147 243,1147 248,1156 243,1165 142,1165 137,1156" stroke="#20208C" fill="#FFFFFF"/>
 <text x="145" y="1160" fill="#000000" font-family="Arial" font-size="10">ConvLayerInterpreter</text>
 <polygon points="137,1176 142,1167 237,1167 242,1176 237,1185 142,1185 137,1176" stroke="#20208C" fill="#FFFFFF"/>
 <text x="145" y="1180" fill="#000000" font-family="Arial" font-size="10">ClipLayerInterpreter</text>
 <polygon points="137,1196 142,1187 240,1187 245,1196 240,1205 142,1205 137,1196" stroke="#20208C" fill="#FFFFFF"/>
 <text x="145" y="1200" fill="#000000" font-family="Arial" font-size="10">LRNLayerInterpreter</text>
 <polygon points="137,1216 142,1207 318,1207 323,1216 318,1225 142,1225 137,1216" stroke="#20208C" fill="#FFFFFF"/>
 <text x="145" y="1220" fill="#000000" font-family="Arial" font-size="10">DetectionPostProcessLayerInterpreter</text>
 <polygon points="137,1236 142,1227 241,1227 246,1236 241,1245 142,1245 137,1236" stroke="#20208C" fill="#FFFFFF"/>
 <text x="145" y="1240" fill="#000000" font-family="Arial" font-size="10">LessLayerInterpreter</text>
 <polygon points="137,1256 142,1247 265,1247 270,1256 265,1265 142,1265 137,1256" stroke="#20208C" fill="#FFFFFF"/>
 <text x="145" y="1260" fill="#000000" font-family="Arial" font-size="10">NormalizeLayerInterpreter</text>
 <polygon points="137,1276 142,1267 266,1267 271,1276 266,1285 142,1285 137,1276" stroke="#20208C" fill="#FFFFFF"/>
 <text x="145" y="1280" fill="#000000" font-family="Arial" font-size="10">ScatterNDLayerInterpreter</text>
 <polygon points="137,1296 142,1287 238,1287 243,1296 238,1305 142,1305 137,1296" stroke="#20208C" fill="#FFFFFF"/>
 <text x="145" y="1300" fill="#000000" font-family="Arial" font-size="10">MaxLayerInterpreter</text>
 <polygon points="137,1316 142,1307 251,1307 256,1316 251,1325 142,1325 137,1316" stroke="#20208C" fill="#FFFFFF"/>
 <text x="145" y="1320" fill="#000000" font-family="Arial" font-size="10">ConcatLayerInterpreter</text>
 <polygon points="137,1336 142,1327 260,1327 265,1336 260,1345 142,1345 137,1336" stroke="#20208C" fill="#FFFFFF"/>
 <text x="145" y="1340" fill="#000000" font-family="Arial" font-size="10">ReshapeLayerInterpreter</text>
 <polygon points="137,1356 142,1347 253,1347 258,1356 253,1365 142,1365 137,1356" stroke="#20208C" fill="#FFFFFF"/>
 <text x="145" y="1360" fill="#000000" font-family="Arial" font-size="10">PoolingLayerInterpreter</text>
 <polygon points="137,1376 142,1367 252,1367 257,1376 252,1385 142,1385 137,1376" stroke="#20208C" fill="#FFFFFF"/>
 <text x="145" y="1380" fill="#000000" font-family="Arial" font-size="10">MatMulLayerInterpreter</text>
 <polygon points="137,1396 142,1387 250,1387 255,1396 250,1405 142,1405 137,1396" stroke="#20208C" fill="#FFFFFF"/>
 <text x="145" y="1400" fill="#000000" font-family="Arial" font-size="10">PadV2LayerInterpreter</text>
 <polygon points="137,1416 142,1407 257,1407 262,1416 257,1425 142,1425 137,1416" stroke="#20208C" fill="#FFFFFF"/>
 <text x="145" y="1420" fill="#000000" font-family="Arial" font-size="10">RoiAlignLayerInterpreter</text>
 <polygon points="137,1436 142,1427 270,1427 275,1436 270,1445 142,1445 137,1436" stroke="#20208C" fill="#FFFFFF"/>
 <text x="145" y="1440" fill="#000000" font-family="Arial" font-size="10">BatchNormLayerInterpreter</text>
 <polygon points="137,1456 142,1447 293,1447 298,1456 293,1465 142,1465 137,1456" stroke="#20208C" fill="#FFFFFF"/>
 <text x="145" y="1460" fill="#000000" font-family="Arial" font-size="10">ScatterElementsLayerInterpreter</text>
 <polygon points="137,1476 142,1467 260,1467 265,1476 260,1485 142,1485 137,1476" stroke="#20208C" fill="#FFFFFF"/>
 <text x="145" y="1480" fill="#000000" font-family="Arial" font-size="10">UnaryOpLayerInterpreter</text>
 <polygon points="137,1496 142,1487 281,1487 286,1496 281,1505 142,1505 137,1496" stroke="#20208C" fill="#FFFFFF"/>
 <text x="145" y="1500" fill="#000000" font-family="Arial" font-size="10">ArgMaxOrMinLayerInterpreter</text>
 <polygon points="137,1516 142,1507 236,1507 241,1516 236,1525 142,1525 137,1516" stroke="#20208C" fill="#FFFFFF"/>
 <text x="145" y="1520" fill="#000000" font-family="Arial" font-size="10">MinLayerInterpreter</text>
 <polygon points="137,1536 142,1527 250,1527 255,1536 250,1545 142,1545 137,1536" stroke="#20208C" fill="#FFFFFF"/>
 <text x="145" y="1540" fill="#000000" font-family="Arial" font-size="10">GatherLayerInterpreter</text>
 <polygon points="137,1556 142,1547 268,1547 273,1556 268,1565 142,1565 137,1556" stroke="#20208C" fill="#FFFFFF"/>
 <text x="145" y="1560" fill="#000000" font-family="Arial" font-size="10">HardSwishLayerInterpreter</text>
 <polygon points="137,1576 142,1567 272,1567 277,1576 272,1585 142,1585 137,1576" stroke="#20208C" fill="#FFFFFF"/>
 <text x="145" y="1580" fill="#000000" font-family="Arial" font-size="10">GroupNormLayerInterpreter</text>
 <polygon points="137,1596 142,1587 248,1587 253,1596 248,1605 142,1605 137,1596" stroke="#20208C" fill="#FFFFFF"/>
 <text x="145" y="1600" fill="#000000" font-family="Arial" font-size="10">ShapeLayerInterpreter</text>
 <polygon points="137,1616 142,1607 266,1607 271,1616 266,1625 142,1625 137,1616" stroke="#20208C" fill="#FFFFFF"/>
 <text x="145" y="1620" fill="#000000" font-family="Arial" font-size="10">Pooling1DLayerInterpreter</text>
 <polygon points="137,1636 142,1627 299,1627 304,1636 299,1645 142,1645 137,1636" stroke="#20208C" fill="#FFFFFF"/>
 <text x="145" y="1640" fill="#000000" font-family="Arial" font-size="10">ConstantOfShapeLayerInterpreter</text>
 <polygon points="137,1656 142,1647 277,1647 282,1656 277,1665 142,1665 137,1656" stroke="#20208C" fill="#FFFFFF"/>
 <text x="145" y="1660" fill="#000000" font-family="Arial" font-size="10">HardSigmoidLayerInterpreter</text>
 <polygon points="137,1676 142,1667 236,1667 241,1676 236,1685 142,1685 137,1676" stroke="#20208C" fill="#FFFFFF"/>
 <text x="145" y="1680" fill="#000000" font-family="Arial" font-size="10">MulLayerInterpreter</text>
</svg>
