<?xml version="1.0"?>
<svg width="842" height="476" xmlns="http://www.w3.org/2000/svg" version="1.1">
 <polygon points="4,473 4,4 839,4 839,473 4,473" stroke="#ffffff" fill="#ffffff"/>
 <ellipse cx="423" cy="238" rx="169" ry="18" stroke="#000000" fill="#ffffff"/>
 <text x="298" y="243" fill="#000000" font-family="Arial" font-size="12">REGISTER_MULTIDIR_BROADCAST_LAYER</text>
 <polygon points="796,4 692,4 692,40 796,40 796,4" stroke="#000000" fill="#ffffff"/>
 <text x="736" y="20" fill="#000000" font-family="Arial" font-size="12">tnn</text>
 <text x="700" y="34" fill="#000000" font-family="Arial" font-size="12">sub_layer.cc(21)</text>
 <polyline points="440,220 452,207 467,193 484,176 503,157 525,138 548,119 572,100 597,81 623,64 650,49 653,48 656,46 659,45 662,43 666,42 669,40 672,39 675,38 679,37 682,36" stroke="#0000ff" fill="none"/>
 <text x="610" y="59" fill="#000000" font-family="Arial" font-size="12">Use</text>
 <polygon points="681,32 692,33 683,39 681,32" stroke="#0000ff" fill="#0000ff"/>
 <polygon points="797,58 692,58 692,94 797,94 797,58" stroke="#000000" fill="#ffffff"/>
 <text x="736" y="74" fill="#000000" font-family="Arial" font-size="12">tnn</text>
 <text x="700" y="88" fill="#000000" font-family="Arial" font-size="12">and_layer.cc(21)</text>
 <polyline points="449,220 462,211 478,200 496,189 515,177 536,164 558,151 580,138 603,126 627,114 650,103 653,102 656,101 659,99 662,98 666,97 669,96 672,95 675,93 679,92 682,91" stroke="#0000ff" fill="none"/>
 <text x="610" y="110" fill="#000000" font-family="Arial" font-size="12">Use</text>
 <polygon points="681,88 691,88 683,95 681,88" stroke="#0000ff" fill="#0000ff"/>
 <polygon points="794,112 694,112 694,148 794,148 794,112" stroke="#000000" fill="#ffffff"/>
 <text x="736" y="128" fill="#000000" font-family="Arial" font-size="12">tnn</text>
 <text x="702" y="142" fill="#000000" font-family="Arial" font-size="12">div_layer.cc(21)</text>
 <polyline points="470,221 484,216 500,210 517,203 535,197 553,190 572,183 592,176 611,170 631,163 650,157 653,156 657,155 660,154 664,153 667,152 670,151 674,150 677,149 681,148 684,147" stroke="#0000ff" fill="none"/>
 <text x="610" y="162" fill="#000000" font-family="Arial" font-size="12">Use</text>
 <polygon points="683,143 694,144 685,150 683,143" stroke="#0000ff" fill="#0000ff"/>
 <polygon points="838,166 650,166 650,202 838,202 838,166" stroke="#000000" fill="#ffffff"/>
 <text x="736" y="182" fill="#000000" font-family="Arial" font-size="12">tnn</text>
 <text x="658" y="196" fill="#000000" font-family="Arial" font-size="12">squared_difference_layer.cc(21)</text>
 <polyline points="514,223 526,221 538,219 551,216 563,214 576,212 589,210 602,208 615,205 628,203 640,201" stroke="#0000ff" fill="none"/>
 <text x="610" y="202" fill="#000000" font-family="Arial" font-size="12">Use</text>
 <polygon points="639,198 650,200 641,205 639,198" stroke="#0000ff" fill="#0000ff"/>
 <polygon points="798,220 690,220 690,256 798,256 798,220" stroke="#000000" fill="#ffffff"/>
 <text x="736" y="236" fill="#000000" font-family="Arial" font-size="12">tnn</text>
 <text x="698" y="250" fill="#000000" font-family="Arial" font-size="12">max_layer.cc(21)</text>
 <polyline points="592,238 601,238 611,238 620,238 629,238 638,238 647,238 655,238 664,238 672,238 680,238" stroke="#0000ff" fill="none"/>
 <text x="610" y="236" fill="#000000" font-family="Arial" font-size="12">Use</text>
 <polygon points="680,234 690,238 680,241 680,234" stroke="#0000ff" fill="#0000ff"/>
 <polygon points="796,274 692,274 692,310 796,310 796,274" stroke="#000000" fill="#ffffff"/>
 <text x="736" y="290" fill="#000000" font-family="Arial" font-size="12">tnn</text>
 <text x="700" y="304" fill="#000000" font-family="Arial" font-size="12">min_layer.cc(21)</text>
 <polyline points="514,253 530,256 547,259 565,262 582,265 600,268 617,271 635,274 651,277 667,279 682,282" stroke="#0000ff" fill="none"/>
 <text x="610" y="267" fill="#000000" font-family="Arial" font-size="12">Use</text>
 <polygon points="682,278 692,283 681,285 682,278" stroke="#0000ff" fill="#0000ff"/>
 <polygon points="797,328 692,328 692,364 797,364 797,328" stroke="#000000" fill="#ffffff"/>
 <text x="736" y="344" fill="#000000" font-family="Arial" font-size="12">tnn</text>
 <text x="700" y="358" fill="#000000" font-family="Arial" font-size="12">add_layer.cc(21)</text>
 <polyline points="470,255 484,260 500,266 517,273 535,279 553,286 572,293 592,300 611,306 631,313 650,319 653,320 656,321 659,322 662,323 666,324 669,325 672,326 675,327 679,328 682,329" stroke="#0000ff" fill="none"/>
 <text x="610" y="304" fill="#000000" font-family="Arial" font-size="12">Use</text>
 <polygon points="683,325 691,332 681,332 683,325" stroke="#0000ff" fill="#0000ff"/>
 <polygon points="817,382 671,382 671,418 817,418 817,382" stroke="#000000" fill="#ffffff"/>
 <text x="736" y="398" fill="#000000" font-family="Arial" font-size="12">tnn</text>
 <text x="679" y="412" fill="#000000" font-family="Arial" font-size="12">hard_swish_layer.cc(21)</text>
 <polyline points="449,256 462,265 478,276 496,287 515,299 536,312 558,325 580,338 603,350 627,362 650,373 651,374 653,374 654,375 655,375 657,376 658,376 660,377 661,377 663,378 664,378" stroke="#0000ff" fill="none"/>
 <text x="610" y="352" fill="#000000" font-family="Arial" font-size="12">Use</text>
 <polygon points="665,375 673,382 663,382 665,375" stroke="#0000ff" fill="#0000ff"/>
 <polygon points="796,436 692,436 692,472 796,472 796,436" stroke="#000000" fill="#ffffff"/>
 <text x="736" y="452" fill="#000000" font-family="Arial" font-size="12">tnn</text>
 <text x="700" y="466" fill="#000000" font-family="Arial" font-size="12">mul_layer.cc(21)</text>
 <polyline points="440,256 452,269 467,283 484,300 503,319 525,338 548,357 572,376 597,395 623,412 650,427 653,428 656,430 659,431 662,433 666,434 669,436 672,437 675,438 679,439 682,440" stroke="#0000ff" fill="none"/>
 <text x="610" y="404" fill="#000000" font-family="Arial" font-size="12">Use</text>
 <polygon points="683,437 692,443 681,444 683,437" stroke="#0000ff" fill="#0000ff"/>
 <polygon points="182,220 4,220 4,256 182,256 182,220" stroke="#000000" fill="#ffffff"/>
 <text x="85" y="236" fill="#000000" font-family="Arial" font-size="12">tnn</text>
 <text x="12" y="250" fill="#000000" font-family="Arial" font-size="12">multidir_broadcast_layer.h(37)</text>
 <polyline points="182,238 188,238 194,238 200,238 206,238 213,238 219,238 225,238 231,238 238,238 244,238" stroke="#696969" fill="none"/>
 <text x="201" y="236" fill="#000000" font-family="Arial" font-size="12">Define</text>
 <polygon points="244,234 254,238 244,241 244,234" stroke="#696969" fill="#696969"/>
</svg>
