<?xml version="1.0"?>
<svg width="722" height="2042" xmlns="http://www.w3.org/2000/svg" version="1.1">
 <polygon points="4,2039 4,4 719,4 719,2039 4,2039" stroke="#ffffff" fill="#ffffff"/>
 <ellipse cx="359" cy="1021" rx="137" ry="18" stroke="#000000" fill="#ffffff"/>
 <text x="259" y="1026" fill="#000000" font-family="Arial" font-size="12">REGISTER_ELEMENTWISE_LAYER</text>
 <polygon points="690,4 582,4 582,40 690,40 690,4" stroke="#000000" fill="#ffffff"/>
 <text x="628" y="20" fill="#000000" font-family="Arial" font-size="12">tnn</text>
 <text x="590" y="34" fill="#000000" font-family="Arial" font-size="12">tanh_layer.cc(21)</text>
 <polyline points="360,1003 360,963 362,904 365,829 372,741 382,643 396,537 415,427 441,316 474,206 514,101 517,93 520,87 523,81 526,76 530,71 533,67 537,63 542,58 547,54 554,49 556,48 558,47 559,46 561,45 563,44 565,43 567,42 568,41 570,40 572,39" stroke="#0000ff" fill="none"/>
 <text x="514" y="63" fill="#000000" font-family="Arial" font-size="12">Use</text>
 <polygon points="571,35 582,35 574,42 571,35" stroke="#0000ff" fill="#0000ff"/>
 <polygon points="689,58 584,58 584,94 689,94 689,58" stroke="#000000" fill="#ffffff"/>
 <text x="628" y="74" fill="#000000" font-family="Arial" font-size="12">tnn</text>
 <text x="592" y="88" fill="#000000" font-family="Arial" font-size="12">neg_layer.cc(21)</text>
 <polyline points="360,1003 361,965 363,909 367,838 374,755 385,663 400,563 419,460 444,356 476,253 514,155 517,147 520,141 523,135 526,130 530,125 533,121 537,117 542,112 547,108 554,103 556,102 558,101 560,99 562,98 564,97 566,96 568,95 570,94 572,93 574,92" stroke="#0000ff" fill="none"/>
 <text x="514" y="117" fill="#000000" font-family="Arial" font-size="12">Use</text>
 <polygon points="573,89 583,88 575,95 573,89" stroke="#0000ff" fill="#0000ff"/>
 <polygon points="687,112 585,112 585,148 687,148 687,112" stroke="#000000" fill="#ffffff"/>
 <text x="628" y="128" fill="#000000" font-family="Arial" font-size="12">tnn</text>
 <text x="593" y="142" fill="#000000" font-family="Arial" font-size="12">not_layer.cc(21)</text>
 <polyline points="360,1003 361,967 364,914 369,848 377,770 388,684 403,591 423,494 447,397 477,301 514,209 517,201 520,195 523,189 526,184 530,179 533,175 537,171 542,166 547,162 554,157 556,156 558,154 560,153 562,152 564,151 566,150 569,148 571,147 573,146 575,145" stroke="#0000ff" fill="none"/>
 <text x="514" y="171" fill="#000000" font-family="Arial" font-size="12">Use</text>
 <polygon points="574,142 585,142 577,148 574,142" stroke="#0000ff" fill="#0000ff"/>
 <polygon points="686,166 586,166 586,202 686,202 686,166" stroke="#000000" fill="#ffffff"/>
 <text x="628" y="182" fill="#000000" font-family="Arial" font-size="12">tnn</text>
 <text x="594" y="196" fill="#000000" font-family="Arial" font-size="12">sin_layer.cc(21)</text>
 <polyline points="361,1003 363,969 366,919 372,857 380,784 392,704 407,617 426,528 450,437 479,348 514,263 517,255 520,249 523,243 526,238 530,233 533,229 537,225 542,220 547,216 554,211 556,210 558,208 560,207 562,205 565,204 567,203 569,202 571,201 574,200 576,199" stroke="#0000ff" fill="none"/>
 <text x="514" y="225" fill="#000000" font-family="Arial" font-size="12">Use</text>
 <polygon points="575,196 586,195 578,202 575,196" stroke="#0000ff" fill="#0000ff"/>
 <polygon points="699,220 573,220 573,256 699,256 699,220" stroke="#000000" fill="#ffffff"/>
 <text x="628" y="236" fill="#000000" font-family="Arial" font-size="12">tnn</text>
 <text x="581" y="250" fill="#000000" font-family="Arial" font-size="12">softsign_layer.cc(21)</text>
 <polyline points="361,1003 363,970 368,924 374,866 383,799 395,724 411,644 430,562 453,478 481,396 514,317 517,310 520,303 523,298 526,292 530,288 533,283 537,279 542,274 547,270 554,265 555,264 556,264 557,263 558,263 559,262 560,261 561,261 562,260 563,260 564,259" stroke="#0000ff" fill="none"/>
 <text x="514" y="279" fill="#000000" font-family="Arial" font-size="12">Use</text>
 <polygon points="562,256 573,254 566,262 562,256" stroke="#0000ff" fill="#0000ff"/>
 <polygon points="691,274 582,274 582,310 691,310 691,274" stroke="#000000" fill="#ffffff"/>
 <text x="628" y="290" fill="#000000" font-family="Arial" font-size="12">tnn</text>
 <text x="590" y="304" fill="#000000" font-family="Arial" font-size="12">rsqrt_layer.cc(21)</text>
 <polyline points="362,1003 365,972 370,929 377,876 387,814 399,745 415,671 434,595 456,519 483,443 514,371 518,364 521,357 524,352 527,346 530,342 533,337 537,333 542,328 547,324 554,319 556,318 558,317 559,316 561,315 563,314 565,313 567,312 568,311 570,310 572,309" stroke="#0000ff" fill="none"/>
 <text x="514" y="333" fill="#000000" font-family="Arial" font-size="12">Use</text>
 <polygon points="571,305 581,305 574,312 571,305" stroke="#0000ff" fill="#0000ff"/>
 <polygon points="690,328 582,328 582,364 690,364 690,328" stroke="#000000" fill="#ffffff"/>
 <text x="628" y="344" fill="#000000" font-family="Arial" font-size="12">tnn</text>
 <text x="590" y="358" fill="#000000" font-family="Arial" font-size="12">floor_layer.cc(21)</text>
 <polyline points="362,1003 366,974 371,934 379,885 389,828 402,765 418,698 437,629 459,559 485,491 514,425 518,418 521,411 524,406 527,400 530,396 533,391 537,387 542,382 547,378 554,373 556,372 558,371 559,370 561,369 563,368 565,367 567,366 568,365 570,364 572,363" stroke="#0000ff" fill="none"/>
 <text x="514" y="387" fill="#000000" font-family="Arial" font-size="12">Use</text>
 <polygon points="571,359 582,359 574,366 571,359" stroke="#0000ff" fill="#0000ff"/>
 <polygon points="694,382 579,382 579,418 694,418 694,382" stroke="#000000" fill="#ffffff"/>
 <text x="628" y="398" fill="#000000" font-family="Arial" font-size="12">tnn</text>
 <text x="587" y="412" fill="#000000" font-family="Arial" font-size="12">swish_layer.cc(21)</text>
 <polyline points="363,1003 367,976 373,940 382,895 393,843 406,786 422,726 440,663 462,600 486,538 514,479 518,472 521,465 524,460 527,454 530,450 533,445 537,441 542,436 547,432 554,427 556,426 557,425 559,424 560,423 562,423 563,422 565,421 566,420 568,419 569,418" stroke="#0000ff" fill="none"/>
 <text x="514" y="441" fill="#000000" font-family="Arial" font-size="12">Use</text>
 <polygon points="568,415 578,414 571,421 568,415" stroke="#0000ff" fill="#0000ff"/>
 <polygon points="705,436 568,436 568,472 705,472 705,436" stroke="#000000" fill="#ffffff"/>
 <text x="628" y="452" fill="#000000" font-family="Arial" font-size="12">tnn</text>
 <text x="576" y="466" fill="#000000" font-family="Arial" font-size="12">reciprocal_layer.cc(21)</text>
 <polyline points="363,1003 368,978 375,945 385,905 396,858 410,807 426,753 445,697 465,641 488,586 514,533 518,526 521,519 524,514 527,508 530,504 533,499 537,495 542,490 547,486 554,481 555,481 555,480 556,480 556,479 557,479 558,479 558,478 559,478 559,477 560,477" stroke="#0000ff" fill="none"/>
 <text x="514" y="495" fill="#000000" font-family="Arial" font-size="12">Use</text>
 <polygon points="559,474 569,472 562,480 559,474" stroke="#0000ff" fill="#0000ff"/>
 <polygon points="689,490 584,490 584,526 689,526 689,490" stroke="#000000" fill="#ffffff"/>
 <text x="628" y="506" fill="#000000" font-family="Arial" font-size="12">tnn</text>
 <text x="592" y="520" fill="#000000" font-family="Arial" font-size="12">sqrt_layer.cc(21)</text>
 <polyline points="364,1003 370,980 377,950 388,914 400,873 414,828 430,781 448,732 468,682 490,634 514,587 518,580 521,573 524,568 527,562 530,558 534,553 537,549 542,544 547,540 554,535 556,534 558,533 560,531 562,530 564,529 566,528 568,527 570,526 572,525 574,524" stroke="#0000ff" fill="none"/>
 <text x="514" y="549" fill="#000000" font-family="Arial" font-size="12">Use</text>
 <polygon points="573,521 583,520 575,527 573,521" stroke="#0000ff" fill="#0000ff"/>
 <polygon points="690,544 583,544 583,580 690,580 690,544" stroke="#000000" fill="#ffffff"/>
 <text x="628" y="560" fill="#000000" font-family="Arial" font-size="12">tnn</text>
 <text x="591" y="574" fill="#000000" font-family="Arial" font-size="12">asin_layer.cc(21)</text>
 <polyline points="365,1003 372,983 380,957 391,925 404,889 419,851 435,810 453,767 472,724 492,682 514,642 518,635 522,628 525,622 528,617 531,612 534,608 538,603 542,599 547,594 554,589 556,588 558,587 559,585 561,584 563,583 565,582 567,581 569,580 571,579 573,578" stroke="#0000ff" fill="none"/>
 <text x="514" y="603" fill="#000000" font-family="Arial" font-size="12">Use</text>
 <polygon points="572,575 582,574 574,582 572,575" stroke="#0000ff" fill="#0000ff"/>
 <polygon points="709,598 563,598 563,634 709,634 709,598" stroke="#000000" fill="#ffffff"/>
 <text x="628" y="614" fill="#000000" font-family="Arial" font-size="12">tnn</text>
 <text x="571" y="628" fill="#000000" font-family="Arial" font-size="12">signed_mul_layer.cc(21)</text>
 <polyline points="367,1003 374,985 384,963 396,936 409,906 424,873 440,839 457,803 475,768 494,732 514,698 518,691 522,684 525,678 528,673 531,668 534,663 538,658 542,653 547,648 554,643 555,643 555,642 556,642 556,641 557,641 558,641 558,640 559,640 559,639 560,639" stroke="#0000ff" fill="none"/>
 <text x="514" y="658" fill="#000000" font-family="Arial" font-size="12">Use</text>
 <polygon points="558,636 569,634 562,642 558,636" stroke="#0000ff" fill="#0000ff"/>
 <polygon points="687,652 585,652 585,688 687,688 687,652" stroke="#000000" fill="#ffffff"/>
 <text x="628" y="668" fill="#000000" font-family="Arial" font-size="12">tnn</text>
 <text x="593" y="682" fill="#000000" font-family="Arial" font-size="12">tan_layer.cc(21)</text>
 <polyline points="365,1003 371,983 380,957 392,928 406,894 424,859 444,824 467,788 493,755 522,724 554,697 556,696 558,694 560,693 562,692 564,691 566,690 569,688 571,687 573,686 575,685" stroke="#0000ff" fill="none"/>
 <text x="514" y="714" fill="#000000" font-family="Arial" font-size="12">Use</text>
 <polygon points="574,682 585,682 577,688 574,682" stroke="#0000ff" fill="#0000ff"/>
 <polygon points="718,706 554,706 554,742 718,742 718,706" stroke="#000000" fill="#ffffff"/>
 <text x="628" y="722" fill="#000000" font-family="Arial" font-size="12">tnn</text>
 <text x="562" y="736" fill="#000000" font-family="Arial" font-size="12">instance_norm_layer.cc(21)</text>
 <polyline points="368,1003 376,986 386,965 399,940 414,913 432,885 452,855 475,827 499,799 526,774 554,751 555,751 555,750 556,750 556,749 557,749 558,749 558,748 559,748 559,747 560,747" stroke="#0000ff" fill="none"/>
 <text x="514" y="766" fill="#000000" font-family="Arial" font-size="12">Use</text>
 <polygon points="559,744 569,742 562,750 559,744" stroke="#0000ff" fill="#0000ff"/>
 <polygon points="688,760 585,760 585,796 688,796 688,760" stroke="#000000" fill="#ffffff"/>
 <text x="628" y="776" fill="#000000" font-family="Arial" font-size="12">tnn</text>
 <text x="593" y="790" fill="#000000" font-family="Arial" font-size="12">ceil_layer.cc(21)</text>
 <polyline points="371,1003 380,989 392,972 406,953 423,932 441,910 461,887 482,865 505,843 529,823 554,805 556,804 558,803 560,801 562,800 564,799 566,798 569,797 571,796 573,795 575,794" stroke="#0000ff" fill="none"/>
 <text x="514" y="817" fill="#000000" font-family="Arial" font-size="12">Use</text>
 <polygon points="574,791 584,790 576,797 574,791" stroke="#0000ff" fill="#0000ff"/>
 <polygon points="715,814 558,814 558,850 715,850 715,814" stroke="#000000" fill="#ffffff"/>
 <text x="628" y="830" fill="#000000" font-family="Arial" font-size="12">tnn</text>
 <text x="566" y="844" fill="#000000" font-family="Arial" font-size="12">hard_sigmoid_layer.cc(21)</text>
 <polyline points="377,1003 388,992 400,979 415,965 432,950 450,934 469,918 489,902 511,887 532,872 554,859 555,858 556,858 557,857 558,857 559,857 559,856 560,856 561,855 562,855 563,854" stroke="#0000ff" fill="none"/>
 <text x="514" y="872" fill="#000000" font-family="Arial" font-size="12">Use</text>
 <polygon points="562,851 573,850 565,857 562,851" stroke="#0000ff" fill="#0000ff"/>
 <polygon points="688,868 585,868 585,904 688,904 688,868" stroke="#000000" fill="#ffffff"/>
 <text x="628" y="884" fill="#000000" font-family="Arial" font-size="12">tnn</text>
 <text x="593" y="898" fill="#000000" font-family="Arial" font-size="12">clip_layer.cc(75)</text>
 <polyline points="388,1003 400,996 414,987 428,979 445,969 462,960 479,950 498,940 516,931 535,921 554,913 556,912 558,911 560,910 562,909 565,909 567,908 569,907 571,906 573,906 575,905" stroke="#0000ff" fill="none"/>
 <text x="514" y="922" fill="#000000" font-family="Arial" font-size="12">Use</text>
 <polygon points="574,901 584,901 576,908 574,901" stroke="#0000ff" fill="#0000ff"/>
 <polygon points="711,922 562,922 562,958 711,958 711,922" stroke="#000000" fill="#ffffff"/>
 <text x="628" y="938" fill="#000000" font-family="Arial" font-size="12">tnn</text>
 <text x="570" y="952" fill="#000000" font-family="Arial" font-size="12">log_sigmoid_layer.cc(21)</text>
 <polyline points="416,1005 429,1001 443,997 458,992 473,988 489,983 504,979 520,974 535,970 550,965 564,961" stroke="#0000ff" fill="none"/>
 <text x="514" y="969" fill="#000000" font-family="Arial" font-size="12">Use</text>
 <polygon points="563,958 574,958 565,964 563,958" stroke="#0000ff" fill="#0000ff"/>
 <polygon points="692,976 580,976 580,1012 692,1012 692,976" stroke="#000000" fill="#ffffff"/>
 <text x="628" y="992" fill="#000000" font-family="Arial" font-size="12">tnn</text>
 <text x="588" y="1006" fill="#000000" font-family="Arial" font-size="12">prelu_layer.cc(21)</text>
 <polyline points="469,1010 479,1009 490,1008 500,1007 511,1006 521,1005 531,1004 541,1003 551,1002 561,1001 570,1000" stroke="#0000ff" fill="none"/>
 <text x="514" y="1003" fill="#000000" font-family="Arial" font-size="12">Use</text>
 <polygon points="570,997 580,999 570,1004 570,997" stroke="#0000ff" fill="#0000ff"/>
 <polygon points="699,1030 573,1030 573,1066 699,1066 699,1030" stroke="#000000" fill="#ffffff"/>
 <text x="628" y="1046" fill="#000000" font-family="Arial" font-size="12">tnn</text>
 <text x="581" y="1060" fill="#000000" font-family="Arial" font-size="12">sigmoid_layer.cc(21)</text>
 <polyline points="469,1032 479,1033 488,1034 498,1035 508,1036 517,1037 527,1037 536,1038 545,1039 554,1040 563,1041" stroke="#0000ff" fill="none"/>
 <text x="514" y="1034" fill="#000000" font-family="Arial" font-size="12">Use</text>
 <polygon points="563,1037 573,1042 563,1044 563,1037" stroke="#0000ff" fill="#0000ff"/>
 <polygon points="703,1084 569,1084 569,1120 703,1120 703,1084" stroke="#000000" fill="#ffffff"/>
 <text x="628" y="1100" fill="#000000" font-family="Arial" font-size="12">tnn</text>
 <text x="577" y="1114" fill="#000000" font-family="Arial" font-size="12">bias_add_layer.cc(21)</text>
 <polyline points="416,1037 429,1041 443,1045 458,1050 473,1054 489,1059 504,1063 520,1068 535,1072 550,1077 564,1081" stroke="#0000ff" fill="none"/>
 <text x="514" y="1066" fill="#000000" font-family="Arial" font-size="12">Use</text>
 <polygon points="565,1078 574,1084 563,1084 565,1078" stroke="#0000ff" fill="#0000ff"/>
 <polygon points="710,1138 562,1138 562,1174 710,1174 710,1138" stroke="#000000" fill="#ffffff"/>
 <text x="628" y="1154" fill="#000000" font-family="Arial" font-size="12">tnn</text>
 <text x="570" y="1168" fill="#000000" font-family="Arial" font-size="12">batch_norm_layer.cc(21)</text>
 <polyline points="388,1039 400,1046 414,1055 428,1063 445,1073 462,1083 479,1092 498,1102 516,1111 535,1121 554,1129 555,1130 556,1130 558,1131 559,1131 560,1132 561,1132 563,1133 564,1133 566,1134 567,1134" stroke="#0000ff" fill="none"/>
 <text x="514" y="1108" fill="#000000" font-family="Arial" font-size="12">Use</text>
 <polygon points="568,1131 577,1138 566,1138 568,1131" stroke="#0000ff" fill="#0000ff"/>
 <polygon points="691,1192 581,1192 581,1228 691,1228 691,1192" stroke="#000000" fill="#ffffff"/>
 <text x="628" y="1208" fill="#000000" font-family="Arial" font-size="12">tnn</text>
 <text x="589" y="1222" fill="#000000" font-family="Arial" font-size="12">acos_layer.cc(21)</text>
 <polyline points="377,1039 388,1050 400,1063 415,1077 432,1092 450,1108 469,1124 489,1140 511,1155 532,1170 554,1183 556,1184 557,1185 559,1186 560,1187 562,1187 564,1188 566,1189 567,1190 569,1190 571,1191" stroke="#0000ff" fill="none"/>
 <text x="514" y="1159" fill="#000000" font-family="Arial" font-size="12">Use</text>
 <polygon points="573,1188 581,1195 570,1195 573,1188" stroke="#0000ff" fill="#0000ff"/>
 <polygon points="690,1246 583,1246 583,1282 690,1282 690,1246" stroke="#000000" fill="#ffffff"/>
 <text x="628" y="1262" fill="#000000" font-family="Arial" font-size="12">tnn</text>
 <text x="591" y="1276" fill="#000000" font-family="Arial" font-size="12">pow_layer.cc(63)</text>
 <polyline points="371,1039 380,1053 392,1070 406,1089 423,1110 441,1132 461,1155 482,1177 505,1199 529,1219 554,1237 556,1238 558,1239 559,1240 561,1241 563,1242 565,1243 567,1244 569,1245 571,1246 573,1247" stroke="#0000ff" fill="none"/>
 <text x="514" y="1206" fill="#000000" font-family="Arial" font-size="12">Use</text>
 <polygon points="574,1244 582,1251 572,1250 574,1244" stroke="#0000ff" fill="#0000ff"/>
 <polygon points="690,1300 582,1300 582,1336 690,1336 690,1300" stroke="#000000" fill="#ffffff"/>
 <text x="628" y="1316" fill="#000000" font-family="Arial" font-size="12">tnn</text>
 <text x="590" y="1330" fill="#000000" font-family="Arial" font-size="12">atan_layer.cc(21)</text>
 <polyline points="368,1039 376,1056 386,1077 399,1102 414,1129 432,1158 452,1187 475,1215 499,1243 526,1269 554,1291 556,1292 558,1293 559,1294 561,1295 563,1296 565,1297 567,1298 568,1299 570,1300 572,1301" stroke="#0000ff" fill="none"/>
 <text x="514" y="1260" fill="#000000" font-family="Arial" font-size="12">Use</text>
 <polygon points="574,1298 582,1305 571,1305 574,1298" stroke="#0000ff" fill="#0000ff"/>
 <polygon points="690,1354 583,1354 583,1390 690,1390 690,1354" stroke="#000000" fill="#ffffff"/>
 <text x="628" y="1370" fill="#000000" font-family="Arial" font-size="12">tnn</text>
 <text x="591" y="1384" fill="#000000" font-family="Arial" font-size="12">sign_layer.cc(21)</text>
 <polyline points="365,1039 371,1059 380,1085 392,1114 406,1148 424,1183 444,1218 467,1254 493,1287 522,1318 554,1345 556,1346 558,1347 559,1349 561,1350 563,1351 565,1352 567,1353 569,1354 571,1355 573,1356" stroke="#0000ff" fill="none"/>
 <text x="514" y="1310" fill="#000000" font-family="Arial" font-size="12">Use</text>
 <polygon points="574,1352 582,1360 572,1359 574,1352" stroke="#0000ff" fill="#0000ff"/>
 <polygon points="693,1408 580,1408 580,1444 693,1444 693,1408" stroke="#000000" fill="#ffffff"/>
 <text x="628" y="1424" fill="#000000" font-family="Arial" font-size="12">tnn</text>
 <text x="588" y="1438" fill="#000000" font-family="Arial" font-size="12">scale_layer.cc(21)</text>
 <polyline points="367,1039 374,1057 384,1079 396,1106 409,1136 424,1169 440,1203 457,1239 475,1274 494,1310 514,1344 518,1351 522,1358 525,1364 528,1369 531,1375 534,1379 538,1384 542,1389 547,1394 554,1399 556,1400 557,1401 559,1402 560,1403 562,1404 563,1405 565,1406 567,1407 568,1407 570,1408" stroke="#0000ff" fill="none"/>
 <text x="514" y="1342" fill="#000000" font-family="Arial" font-size="12">Use</text>
 <polygon points="571,1405 579,1413 569,1412 571,1405" stroke="#0000ff" fill="#0000ff"/>
 <polygon points="692,1462 580,1462 580,1498 692,1498 692,1462" stroke="#000000" fill="#ffffff"/>
 <text x="628" y="1478" fill="#000000" font-family="Arial" font-size="12">tnn</text>
 <text x="588" y="1492" fill="#000000" font-family="Arial" font-size="12">relu6_layer.cc(21)</text>
 <polyline points="365,1039 372,1059 380,1085 391,1117 404,1153 419,1191 435,1232 453,1275 472,1318 492,1360 514,1400 518,1407 522,1414 525,1420 528,1425 531,1430 534,1434 538,1439 542,1443 547,1448 554,1453 556,1454 557,1455 559,1456 560,1457 562,1458 564,1459 565,1460 567,1461 568,1462 570,1463" stroke="#0000ff" fill="none"/>
 <text x="514" y="1398" fill="#000000" font-family="Arial" font-size="12">Use</text>
 <polygon points="572,1459 580,1467 569,1466 572,1459" stroke="#0000ff" fill="#0000ff"/>
 <polygon points="687,1516 586,1516 586,1552 687,1552 687,1516" stroke="#000000" fill="#ffffff"/>
 <text x="628" y="1532" fill="#000000" font-family="Arial" font-size="12">tnn</text>
 <text x="594" y="1546" fill="#000000" font-family="Arial" font-size="12">log_layer.cc(21)</text>
 <polyline points="364,1039 370,1062 377,1092 388,1128 400,1169 414,1214 430,1261 448,1310 468,1360 490,1408 514,1455 518,1462 521,1469 524,1474 527,1480 530,1484 534,1489 537,1493 542,1498 547,1502 554,1507 556,1508 558,1510 560,1511 562,1513 565,1514 567,1515 569,1516 571,1517 574,1518 576,1519" stroke="#0000ff" fill="none"/>
 <text x="514" y="1453" fill="#000000" font-family="Arial" font-size="12">Use</text>
 <polygon points="577,1516 585,1523 575,1522 577,1516" stroke="#0000ff" fill="#0000ff"/>
 <polygon points="688,1570 584,1570 584,1606 688,1606 688,1570" stroke="#000000" fill="#ffffff"/>
 <text x="628" y="1586" fill="#000000" font-family="Arial" font-size="12">tnn</text>
 <text x="592" y="1600" fill="#000000" font-family="Arial" font-size="12">exp_layer.cc(21)</text>
 <polyline points="363,1039 368,1064 375,1097 385,1137 396,1184 410,1235 426,1289 445,1345 465,1401 488,1456 514,1509 518,1516 521,1523 524,1528 527,1534 530,1538 533,1543 537,1547 542,1552 547,1556 554,1561 556,1562 558,1563 560,1565 562,1566 564,1567 566,1568 568,1569 570,1570 573,1571 575,1572" stroke="#0000ff" fill="none"/>
 <text x="514" y="1507" fill="#000000" font-family="Arial" font-size="12">Use</text>
 <polygon points="576,1569 584,1576 573,1576 576,1569" stroke="#0000ff" fill="#0000ff"/>
 <polygon points="687,1624 586,1624 586,1660 687,1660 687,1624" stroke="#000000" fill="#ffffff"/>
 <text x="628" y="1640" fill="#000000" font-family="Arial" font-size="12">tnn</text>
 <text x="594" y="1654" fill="#000000" font-family="Arial" font-size="12">elu_layer.cc(21)</text>
 <polyline points="363,1039 367,1066 373,1102 382,1147 393,1199 406,1256 422,1316 440,1379 462,1442 486,1504 514,1563 518,1570 521,1577 524,1582 527,1588 530,1592 533,1597 537,1601 542,1606 547,1610 554,1615 556,1616 558,1618 560,1619 562,1621 565,1622 567,1623 569,1624 571,1625 574,1626 576,1627" stroke="#0000ff" fill="none"/>
 <text x="514" y="1561" fill="#000000" font-family="Arial" font-size="12">Use</text>
 <polygon points="577,1624 585,1631 575,1630 577,1624" stroke="#0000ff" fill="#0000ff"/>
 <polygon points="686,1678 587,1678 587,1714 686,1714 686,1678" stroke="#000000" fill="#ffffff"/>
 <text x="628" y="1694" fill="#000000" font-family="Arial" font-size="12">tnn</text>
 <text x="595" y="1708" fill="#000000" font-family="Arial" font-size="12">erf_layer.cc(21)</text>
 <polyline points="362,1039 366,1068 371,1108 379,1157 389,1214 402,1277 418,1344 437,1413 459,1483 485,1551 514,1617 518,1624 521,1631 524,1636 527,1642 530,1646 533,1651 537,1655 542,1660 547,1664 554,1669 556,1670 558,1672 561,1673 563,1675 565,1676 567,1677 570,1678 572,1679 575,1680 577,1681" stroke="#0000ff" fill="none"/>
 <text x="514" y="1615" fill="#000000" font-family="Arial" font-size="12">Use</text>
 <polygon points="578,1678 586,1685 576,1685 578,1678" stroke="#0000ff" fill="#0000ff"/>
 <polygon points="689,1732 584,1732 584,1768 689,1768 689,1732" stroke="#000000" fill="#ffffff"/>
 <text x="628" y="1748" fill="#000000" font-family="Arial" font-size="12">tnn</text>
 <text x="592" y="1762" fill="#000000" font-family="Arial" font-size="12">relu_layer.cc(21)</text>
 <polyline points="362,1039 365,1070 370,1113 377,1166 387,1228 399,1297 415,1371 434,1447 456,1523 483,1599 514,1671 518,1678 521,1685 524,1690 527,1696 530,1700 533,1705 537,1709 542,1714 547,1718 554,1723 556,1724 558,1725 560,1727 562,1728 564,1729 566,1730 568,1731 570,1732 572,1733 574,1734" stroke="#0000ff" fill="none"/>
 <text x="514" y="1669" fill="#000000" font-family="Arial" font-size="12">Use</text>
 <polygon points="575,1731 583,1738 573,1737 575,1731" stroke="#0000ff" fill="#0000ff"/>
 <polygon points="699,1786 573,1786 573,1822 699,1822 699,1786" stroke="#000000" fill="#ffffff"/>
 <text x="628" y="1802" fill="#000000" font-family="Arial" font-size="12">tnn</text>
 <text x="581" y="1816" fill="#000000" font-family="Arial" font-size="12">softplus_layer.cc(21)</text>
 <polyline points="361,1039 363,1072 368,1118 374,1176 383,1243 395,1318 411,1398 430,1480 453,1564 481,1646 514,1725 517,1732 520,1739 523,1744 526,1750 530,1754 533,1759 537,1763 542,1768 547,1772 554,1777 555,1778 556,1778 557,1779 558,1779 559,1780 560,1781 561,1781 562,1782 563,1782 564,1783" stroke="#0000ff" fill="none"/>
 <text x="514" y="1723" fill="#000000" font-family="Arial" font-size="12">Use</text>
 <polygon points="566,1780 573,1788 562,1786 566,1780" stroke="#0000ff" fill="#0000ff"/>
 <polygon points="688,1840 584,1840 584,1876 688,1876 688,1840" stroke="#000000" fill="#ffffff"/>
 <text x="628" y="1856" fill="#000000" font-family="Arial" font-size="12">tnn</text>
 <text x="592" y="1870" fill="#000000" font-family="Arial" font-size="12">abs_layer.cc(21)</text>
 <polyline points="361,1039 363,1073 366,1123 372,1185 380,1258 392,1339 407,1425 426,1514 450,1605 479,1694 514,1779 517,1787 520,1793 523,1799 526,1804 530,1809 533,1813 537,1817 542,1822 547,1826 554,1831 556,1832 558,1833 560,1835 562,1836 564,1837 566,1838 568,1839 570,1840 573,1841 575,1842" stroke="#0000ff" fill="none"/>
 <text x="514" y="1777" fill="#000000" font-family="Arial" font-size="12">Use</text>
 <polygon points="576,1839 584,1846 573,1846 576,1839" stroke="#0000ff" fill="#0000ff"/>
 <polygon points="690,1894 582,1894 582,1930 690,1930 690,1894" stroke="#000000" fill="#ffffff"/>
 <text x="628" y="1910" fill="#000000" font-family="Arial" font-size="12">tnn</text>
 <text x="590" y="1924" fill="#000000" font-family="Arial" font-size="12">gelu_layer.cc(21)</text>
 <polyline points="360,1039 361,1075 364,1128 369,1194 377,1272 388,1358 403,1451 423,1548 447,1645 477,1741 514,1833 517,1841 520,1847 523,1853 526,1858 530,1863 533,1867 537,1871 542,1876 547,1880 554,1885 556,1886 558,1887 559,1888 561,1889 563,1890 565,1891 567,1892 568,1893 570,1894 572,1895" stroke="#0000ff" fill="none"/>
 <text x="514" y="1831" fill="#000000" font-family="Arial" font-size="12">Use</text>
 <polygon points="574,1892 582,1899 571,1899 574,1892" stroke="#0000ff" fill="#0000ff"/>
 <polygon points="688,1948 584,1948 584,1984 688,1984 688,1948" stroke="#000000" fill="#ffffff"/>
 <text x="628" y="1964" fill="#000000" font-family="Arial" font-size="12">tnn</text>
 <text x="592" y="1978" fill="#000000" font-family="Arial" font-size="12">cos_layer.cc(21)</text>
 <polyline points="360,1039 361,1077 363,1133 367,1204 374,1287 385,1379 400,1479 419,1582 444,1686 476,1789 514,1887 517,1895 520,1901 523,1907 526,1912 530,1917 533,1921 537,1925 542,1930 547,1934 554,1939 556,1940 558,1941 560,1943 562,1944 564,1945 566,1946 568,1947 570,1948 573,1949 575,1950" stroke="#0000ff" fill="none"/>
 <text x="514" y="1885" fill="#000000" font-family="Arial" font-size="12">Use</text>
 <polygon points="576,1947 584,1954 573,1954 576,1947" stroke="#0000ff" fill="#0000ff"/>
 <polygon points="690,2002 583,2002 583,2038 690,2038 690,2002" stroke="#000000" fill="#ffffff"/>
 <text x="628" y="2018" fill="#000000" font-family="Arial" font-size="12">tnn</text>
 <text x="591" y="2032" fill="#000000" font-family="Arial" font-size="12">selu_layer.cc(21)</text>
 <polyline points="360,1039 360,1079 362,1138 365,1213 372,1301 382,1399 396,1505 415,1615 441,1726 474,1836 514,1941 517,1949 520,1955 523,1961 526,1966 530,1971 533,1975 537,1979 542,1984 547,1988 554,1993 556,1994 558,1995 559,1997 561,1998 563,1999 565,2000 567,2001 569,2002 571,2002 573,2003" stroke="#0000ff" fill="none"/>
 <text x="514" y="1939" fill="#000000" font-family="Arial" font-size="12">Use</text>
 <polygon points="574,2000 582,2007 572,2007 574,2000" stroke="#0000ff" fill="#0000ff"/>
 <polygon points="150,1003 4,1003 4,1039 150,1039 150,1003" stroke="#000000" fill="#ffffff"/>
 <text x="69" y="1019" fill="#000000" font-family="Arial" font-size="12">tnn</text>
 <text x="12" y="1033" fill="#000000" font-family="Arial" font-size="12">elementwise_layer.h(38)</text>
 <polyline points="150,1021 156,1021 162,1021 168,1021 174,1021 180,1021 186,1021 192,1021 199,1021 205,1021 212,1021" stroke="#696969" fill="none"/>
 <text x="169" y="1019" fill="#000000" font-family="Arial" font-size="12">Define</text>
 <polygon points="212,1017 222,1021 212,1024 212,1017" stroke="#696969" fill="#696969"/>
</svg>
