<?xml version="1.0"?>
<svg width="2544" height="694" xmlns="http://www.w3.org/2000/svg" version="1.1">
 <polygon points="4,691 4,4 2541,4 2541,691 4,691" stroke="#ffffff" fill="#ffffff"/>
 <polygon points="24,618 49,618 118,618 220,618 343,618 477,618 611,618 734,618 836,618 905,618 930,618 932,618 934,617 935,617 937,616 938,614 940,613 941,611 941,610 942,608 942,606 942,600 942,584 942,559 942,530 942,498 942,466 942,437 942,412 942,396 942,390 942,388 941,386 941,385 940,383 938,382 937,380 935,379 934,379 932,378 930,378 905,378 836,378 734,378 611,378 477,378 343,378 220,378 118,378 49,378 24,378 22,378 20,379 19,379 17,380 16,382 14,383 13,385 13,386 12,388 12,390 12,396 12,412 12,437 12,466 12,498 12,530 12,559 12,584 12,600 12,606 12,608 13,610 13,611 14,613 16,614 17,616 19,617 20,617 22,618 24,618" stroke="#000000" fill="#FFFFCC"/>
 <polygon points="734,516 739,516 754,516 775,516 800,516 828,516 856,516 881,516 902,516 917,516 922,516 924,516 926,515 927,515 929,514 930,512 932,511 933,509 933,508 934,506 934,504 934,503 934,501 934,498 934,494 934,490 934,486 934,482 934,479 934,477 934,476 934,474 933,472 933,471 932,469 930,468 929,466 927,465 926,465 924,464 922,464 917,464 902,464 881,464 856,464 828,464 800,464 775,464 754,464 739,464 734,464 732,464 730,465 729,465 727,466 726,468 724,469 723,471 723,472 722,474 722,476 722,477 722,479 722,482 722,486 722,490 722,494 722,498 722,501 722,503 722,504 722,506 723,508 723,509 724,511 726,512 727,514 729,515 730,515 732,516 734,516" stroke="#000000" fill="#F0FFF0"/>
 <polygon points="926,472 734,472 730,476 730,508 922,508 926,504 926,472" stroke="#0000ff" fill="#ffffff"/>
 <polyline points="922,476 730,476" stroke="#0000ff" fill="none"/>
 <polyline points="922,476 922,508" stroke="#0000ff" fill="none"/>
 <polyline points="922,476 926,472" stroke="#0000ff" fill="none"/>
 <text x="738" y="495" fill="#000000" font-family="Arial" font-size="12">return ExecNchw(inputs, outputs);</text>
 <polygon points="32,610 51,610 102,610 177,610 268,610 367,610 466,610 557,610 632,610 683,610 702,610 704,610 706,609 707,609 709,608 710,606 712,605 713,603 713,602 714,600 714,598 714,595 714,585 714,572 714,555 714,537 714,519 714,502 714,489 714,479 714,476 714,474 713,472 713,471 712,469 710,468 709,466 707,465 706,465 704,464 702,464 683,464 632,464 557,464 466,464 367,464 268,464 177,464 102,464 51,464 32,464 30,464 28,465 27,465 25,466 24,468 22,469 21,471 21,472 20,474 20,476 20,479 20,489 20,502 20,519 20,537 20,555 20,572 20,585 20,595 20,598 20,600 21,602 21,603 22,605 24,606 25,608 27,609 28,609 30,610 32,610" stroke="#000000" fill="#F0FFF0"/>
 <polygon points="40,602 45,602 60,602 81,602 106,602 134,602 162,602 187,602 208,602 223,602 228,602 230,602 232,601 233,601 235,600 236,598 238,597 239,595 239,594 240,592 240,590 240,589 240,587 240,584 240,580 240,576 240,572 240,568 240,565 240,563 240,562 240,560 239,558 239,557 238,555 236,554 235,552 233,551 232,551 230,550 228,550 223,550 208,550 187,550 162,550 134,550 106,550 81,550 60,550 45,550 40,550 38,550 36,551 35,551 33,552 32,554 30,555 29,557 29,558 28,560 28,562 28,563 28,565 28,568 28,572 28,576 28,580 28,584 28,587 28,589 28,590 28,592 29,594 29,595 30,597 32,598 33,600 35,601 36,601 38,602 40,602" stroke="#000000" fill="#DFFFFF"/>
 <polygon points="232,558 40,558 36,562 36,594 228,594 232,590 232,558" stroke="#0000ff" fill="#ffffff"/>
 <polyline points="228,562 36,562" stroke="#0000ff" fill="none"/>
 <polyline points="228,562 228,594" stroke="#0000ff" fill="none"/>
 <polyline points="228,562 232,558" stroke="#0000ff" fill="none"/>
 <text x="44" y="581" fill="#000000" font-family="Arial" font-size="12">return ExecNchw(inputs, outputs);</text>
 <polygon points="260,602 272,602 305,602 354,602 413,602 477,602 541,602 600,602 649,602 682,602 694,602 696,602 698,601 699,601 701,600 702,598 704,597 705,595 705,594 706,592 706,590 706,589 706,587 706,584 706,580 706,576 706,572 706,568 706,565 706,563 706,562 706,560 705,558 705,557 704,555 702,554 701,552 699,551 698,551 696,550 694,550 682,550 649,550 600,550 541,550 477,550 413,550 354,550 305,550 272,550 260,550 258,550 256,551 255,551 253,552 252,554 250,555 249,557 249,558 248,560 248,562 248,563 248,565 248,568 248,572 248,576 248,580 248,584 248,587 248,589 248,590 248,592 249,594 249,595 250,597 252,598 253,600 255,601 256,601 258,602 260,602" stroke="#000000" fill="#DFFFFF"/>
 <polygon points="698,558 260,558 256,562 256,594 694,594 698,590 698,558" stroke="#0000ff" fill="#ffffff"/>
 <polyline points="694,562 256,562" stroke="#0000ff" fill="none"/>
 <polyline points="694,562 694,594" stroke="#0000ff" fill="none"/>
 <polyline points="694,562 698,558" stroke="#0000ff" fill="none"/>
 <text x="264" y="581" fill="#000000" font-family="Arial" font-size="12">return Status(TNNERR_LAYER_ERR, &quot;Unsupported data type in innerproduct&quot;);</text>
 <polygon points="396,472 86,490 396,508 706,490 396,472" stroke="#0000ff" fill="#ffffff"/>
 <text x="231" y="495" fill="#000000" font-family="Arial" font-size="12">(inputs[0]-&gt;GetBlobDesc().data_type == DATA_TYPE_BFP16)</text>
 <polyline points="351,505 337,509 322,514 306,519 290,525 273,530 256,536 239,541 223,546 207,551 192,556" stroke="#00ff00" fill="none"/>
 <text x="281" y="538" fill="#000000" font-family="Arial" font-size="12">yes</text>
 <polygon points="193,558 187,558 192,555 193,558" stroke="#00ff00" fill="#00ff00"/>
 <polyline points="412,507 416,511 420,516 424,521 429,526 434,531 439,535 443,540 448,545 453,550 457,554" stroke="#ff0000" fill="none"/>
 <text x="443" y="538" fill="#000000" font-family="Arial" font-size="12">no</text>
 <polygon points="458,553 461,558 456,556 458,553" stroke="#ff0000" fill="#ff0000"/>
 <polygon points="623,386 312,404 623,422 934,404 623,386" stroke="#0000ff" fill="#ffffff"/>
 <text x="457" y="409" fill="#000000" font-family="Arial" font-size="12">(inputs[0]-&gt;GetBlobDesc().data_type == DATA_TYPE_FLOAT)</text>
 <polyline points="660,420 671,424 682,429 694,434 707,439 720,445 733,450 745,455 758,460 770,465 781,470" stroke="#00ff00" fill="none"/>
 <text x="738" y="452" fill="#000000" font-family="Arial" font-size="12">yes</text>
 <polygon points="782,468 786,472 781,472 782,468" stroke="#00ff00" fill="#00ff00"/>
 <polyline points="583,420 570,424 557,429 542,435 527,440 512,446 497,451 482,457 467,463 453,468 440,473" stroke="#ff0000" fill="none"/>
 <text x="525" y="452" fill="#000000" font-family="Arial" font-size="12">no</text>
 <polygon points="441,474 436,474 440,471 441,474" stroke="#ff0000" fill="#ff0000"/>
 <polygon points="2095,222 2099,222 2111,222 2129,222 2151,222 2174,222 2197,222 2219,222 2237,222 2249,222 2253,222 2255,222 2257,221 2258,221 2260,220 2261,218 2263,217 2264,215 2264,214 2265,212 2265,210 2265,209 2265,207 2265,204 2265,200 2265,196 2265,192 2265,188 2265,185 2265,183 2265,182 2265,180 2264,178 2264,177 2263,175 2261,174 2260,172 2258,171 2257,171 2255,170 2253,170 2249,170 2237,170 2219,170 2197,170 2174,170 2151,170 2129,170 2111,170 2099,170 2095,170 2093,170 2091,171 2090,171 2088,172 2087,174 2085,175 2084,177 2084,178 2083,180 2083,182 2083,183 2083,185 2083,188 2083,192 2083,196 2083,200 2083,204 2083,207 2083,209 2083,210 2083,212 2084,214 2084,215 2085,217 2087,218 2088,220 2090,221 2091,221 2093,222 2095,222" stroke="#000000" fill="#FFFFCC"/>
 <polygon points="2257,178 2095,178 2091,182 2091,214 2253,214 2257,210 2257,178" stroke="#0000ff" fill="#ffffff"/>
 <polyline points="2253,182 2091,182" stroke="#0000ff" fill="none"/>
 <polyline points="2253,182 2253,214" stroke="#0000ff" fill="none"/>
 <polyline points="2253,182 2257,178" stroke="#0000ff" fill="none"/>
 <text x="2099" y="201" fill="#000000" font-family="Arial" font-size="12">return Exec(inputs, outputs);</text>
 <polygon points="962,626 1000,626 1101,626 1251,626 1434,626 1632,626 1830,626 2013,626 2163,626 2264,626 2302,626 2304,626 2306,625 2307,625 2309,624 2310,622 2312,621 2313,619 2313,618 2314,616 2314,614 2314,604 2314,578 2314,539 2314,492 2314,441 2314,390 2314,343 2314,304 2314,278 2314,268 2314,266 2313,264 2313,263 2312,261 2310,260 2309,258 2307,257 2306,257 2304,256 2302,256 2264,256 2163,256 2013,256 1830,256 1632,256 1434,256 1251,256 1101,256 1000,256 962,256 960,256 958,257 957,257 955,258 954,260 952,261 951,263 951,264 950,266 950,268 950,278 950,304 950,343 950,390 950,441 950,492 950,539 950,578 950,604 950,614 950,616 951,618 951,619 952,621 954,622 955,624 957,625 958,625 960,626 962,626" stroke="#000000" fill="#FFFFCC"/>
 <polygon points="970,618 994,618 1058,618 1153,618 1268,618 1393,618 1518,618 1633,618 1728,618 1792,618 1816,618 1818,618 1820,617 1821,617 1823,616 1824,614 1826,613 1827,611 1827,610 1828,608 1828,606 1828,600 1828,584 1828,559 1828,530 1828,498 1828,466 1828,437 1828,412 1828,396 1828,390 1828,388 1827,386 1827,385 1826,383 1824,382 1823,380 1821,379 1820,379 1818,378 1816,378 1792,378 1728,378 1633,378 1518,378 1393,378 1268,378 1153,378 1058,378 994,378 970,378 968,378 966,379 965,379 963,380 962,382 960,383 959,385 959,386 958,388 958,390 958,396 958,412 958,437 958,466 958,498 958,530 958,559 958,584 958,600 958,606 958,608 959,610 959,611 960,613 962,614 963,616 965,617 966,617 968,618 970,618" stroke="#000000" fill="#F0FFF0"/>
 <polygon points="1650,516 1654,516 1666,516 1684,516 1706,516 1729,516 1752,516 1774,516 1792,516 1804,516 1808,516 1810,516 1812,515 1813,515 1815,514 1816,512 1818,511 1819,509 1819,508 1820,506 1820,504 1820,503 1820,501 1820,498 1820,494 1820,490 1820,486 1820,482 1820,479 1820,477 1820,476 1820,474 1819,472 1819,471 1818,469 1816,468 1815,466 1813,465 1812,465 1810,464 1808,464 1804,464 1792,464 1774,464 1752,464 1729,464 1706,464 1684,464 1666,464 1654,464 1650,464 1648,464 1646,465 1645,465 1643,466 1642,468 1640,469 1639,471 1639,472 1638,474 1638,476 1638,477 1638,479 1638,482 1638,486 1638,490 1638,494 1638,498 1638,501 1638,503 1638,504 1638,506 1639,508 1639,509 1640,511 1642,512 1643,514 1645,515 1646,515 1648,516 1650,516" stroke="#000000" fill="#DFFFFF"/>
 <polygon points="1812,472 1650,472 1646,476 1646,508 1808,508 1812,504 1812,472" stroke="#0000ff" fill="#ffffff"/>
 <polyline points="1808,476 1646,476" stroke="#0000ff" fill="none"/>
 <polyline points="1808,476 1808,508" stroke="#0000ff" fill="none"/>
 <polyline points="1808,476 1812,472" stroke="#0000ff" fill="none"/>
 <text x="1654" y="495" fill="#000000" font-family="Arial" font-size="12">return Exec(inputs, outputs);</text>
 <polygon points="978,610 996,610 1045,610 1116,610 1203,610 1298,610 1393,610 1480,610 1551,610 1600,610 1618,610 1620,610 1622,609 1623,609 1625,608 1626,606 1628,605 1629,603 1629,602 1630,600 1630,598 1630,595 1630,585 1630,572 1630,555 1630,537 1630,519 1630,502 1630,489 1630,479 1630,476 1630,474 1629,472 1629,471 1628,469 1626,468 1625,466 1623,465 1622,465 1620,464 1618,464 1600,464 1551,464 1480,464 1393,464 1298,464 1203,464 1116,464 1045,464 996,464 978,464 976,464 974,465 973,465 971,466 970,468 968,469 967,471 967,472 966,474 966,476 966,479 966,489 966,502 966,519 966,537 966,555 966,572 966,585 966,595 966,598 966,600 967,602 967,603 968,605 970,606 971,608 973,609 974,609 976,610 978,610" stroke="#000000" fill="#DFFFFF"/>
 <polygon points="1452,602 1456,602 1468,602 1486,602 1508,602 1531,602 1554,602 1576,602 1594,602 1606,602 1610,602 1612,602 1614,601 1615,601 1617,600 1618,598 1620,597 1621,595 1621,594 1622,592 1622,590 1622,589 1622,587 1622,584 1622,580 1622,576 1622,572 1622,568 1622,565 1622,563 1622,562 1622,560 1621,558 1621,557 1620,555 1618,554 1617,552 1615,551 1614,551 1612,550 1610,550 1606,550 1594,550 1576,550 1554,550 1531,550 1508,550 1486,550 1468,550 1456,550 1452,550 1450,550 1448,551 1447,551 1445,552 1444,554 1442,555 1441,557 1441,558 1440,560 1440,562 1440,563 1440,565 1440,568 1440,572 1440,576 1440,580 1440,584 1440,587 1440,589 1440,590 1440,592 1441,594 1441,595 1442,597 1444,598 1445,600 1447,601 1448,601 1450,602 1452,602" stroke="#000000" fill="#FFE5E2"/>
 <polygon points="1614,558 1452,558 1448,562 1448,594 1610,594 1614,590 1614,558" stroke="#0000ff" fill="#ffffff"/>
 <polyline points="1610,562 1448,562" stroke="#0000ff" fill="none"/>
 <polyline points="1610,562 1610,594" stroke="#0000ff" fill="none"/>
 <polyline points="1610,562 1614,558" stroke="#0000ff" fill="none"/>
 <text x="1456" y="581" fill="#000000" font-family="Arial" font-size="12">return Exec(inputs, outputs);</text>
 <polygon points="986,602 998,602 1031,602 1080,602 1139,602 1203,602 1267,602 1326,602 1375,602 1408,602 1420,602 1422,602 1424,601 1425,601 1427,600 1428,598 1430,597 1431,595 1431,594 1432,592 1432,590 1432,589 1432,587 1432,584 1432,580 1432,576 1432,572 1432,568 1432,565 1432,563 1432,562 1432,560 1431,558 1431,557 1430,555 1428,554 1427,552 1425,551 1424,551 1422,550 1420,550 1408,550 1375,550 1326,550 1267,550 1203,550 1139,550 1080,550 1031,550 998,550 986,550 984,550 982,551 981,551 979,552 978,554 976,555 975,557 975,558 974,560 974,562 974,563 974,565 974,568 974,572 974,576 974,580 974,584 974,587 974,589 974,590 974,592 975,594 975,595 976,597 978,598 979,600 981,601 982,601 984,602 986,602" stroke="#000000" fill="#FFE5E2"/>
 <polygon points="1424,558 986,558 982,562 982,594 1420,594 1424,590 1424,558" stroke="#0000ff" fill="#ffffff"/>
 <polyline points="1420,562 982,562" stroke="#0000ff" fill="none"/>
 <polyline points="1420,562 1420,594" stroke="#0000ff" fill="none"/>
 <polyline points="1420,562 1424,558" stroke="#0000ff" fill="none"/>
 <text x="990" y="581" fill="#000000" font-family="Arial" font-size="12">return Status(TNNERR_LAYER_ERR, &quot;Unsupported data type in innerproduct&quot;);</text>
 <polygon points="1312,472 1002,490 1312,508 1622,490 1312,472" stroke="#0000ff" fill="#ffffff"/>
 <text x="1147" y="495" fill="#000000" font-family="Arial" font-size="12">(inputs[0]-&gt;GetBlobDesc().data_type == DATA_TYPE_BFP16)</text>
 <polyline points="1351,506 1362,510 1375,515 1388,520 1401,525 1415,531 1429,536 1443,541 1456,546 1470,551 1482,556" stroke="#00ff00" fill="none"/>
 <text x="1435" y="538" fill="#000000" font-family="Arial" font-size="12">yes</text>
 <polygon points="1482,554 1486,558 1481,558 1482,554" stroke="#00ff00" fill="#00ff00"/>
 <polyline points="1291,507 1286,511 1280,516 1274,521 1267,526 1261,531 1254,536 1248,541 1241,546 1235,550 1229,555" stroke="#ff0000" fill="none"/>
 <text x="1266" y="538" fill="#000000" font-family="Arial" font-size="12">no</text>
 <polygon points="1230,556 1225,558 1228,553 1230,556" stroke="#ff0000" fill="#ff0000"/>
 <polygon points="1509,386 1198,404 1509,422 1820,404 1509,386" stroke="#0000ff" fill="#ffffff"/>
 <text x="1343" y="409" fill="#000000" font-family="Arial" font-size="12">(inputs[0]-&gt;GetBlobDesc().data_type == DATA_TYPE_FLOAT)</text>
 <polyline points="1548,420 1559,424 1572,429 1585,434 1598,439 1612,445 1626,450 1640,455 1654,460 1667,465 1679,470" stroke="#00ff00" fill="none"/>
 <text x="1633" y="452" fill="#000000" font-family="Arial" font-size="12">yes</text>
 <polygon points="1680,468 1684,472 1679,472 1680,468" stroke="#00ff00" fill="#00ff00"/>
 <polyline points="1474,420 1463,425 1452,430 1439,435 1427,440 1414,446 1401,452 1388,457 1375,462 1363,467 1352,472" stroke="#ff0000" fill="none"/>
 <text x="1424" y="452" fill="#000000" font-family="Arial" font-size="12">no</text>
 <polygon points="1353,474 1347,474 1351,470 1353,474" stroke="#ff0000" fill="#ff0000"/>
 <polygon points="1848,430 1860,430 1894,430 1944,430 2005,430 2071,430 2137,430 2198,430 2248,430 2282,430 2294,430 2296,430 2298,429 2299,429 2301,428 2302,426 2304,425 2305,423 2305,422 2306,420 2306,418 2306,417 2306,415 2306,412 2306,408 2306,404 2306,400 2306,396 2306,393 2306,391 2306,390 2306,388 2305,386 2305,385 2304,383 2302,382 2301,380 2299,379 2298,379 2296,378 2294,378 2282,378 2248,378 2198,378 2137,378 2071,378 2005,378 1944,378 1894,378 1860,378 1848,378 1846,378 1844,379 1843,379 1841,380 1840,382 1838,383 1837,385 1837,386 1836,388 1836,390 1836,391 1836,393 1836,396 1836,400 1836,404 1836,408 1836,412 1836,415 1836,417 1836,418 1836,420 1837,422 1837,423 1838,425 1840,426 1841,428 1843,429 1844,429 1846,430 1848,430" stroke="#000000" fill="#F0FFF0"/>
 <polygon points="2298,386 1848,386 1844,390 1844,422 2294,422 2298,418 2298,386" stroke="#0000ff" fill="#ffffff"/>
 <polyline points="2294,390 1844,390" stroke="#0000ff" fill="none"/>
 <polyline points="2294,390 2294,422" stroke="#0000ff" fill="none"/>
 <polyline points="2294,390 2298,386" stroke="#0000ff" fill="none"/>
 <text x="1853" y="409" fill="#000000" font-family="Arial" font-size="12">return Status(TNNERR_LAYER_ERR, &quot;Unsupported data format in innerproduct&quot;);</text>
 <polygon points="1687,264 1291,300 1687,336 2083,300 1687,264" stroke="#0000ff" fill="#ffffff"/>
 <text x="1497" y="298" fill="#000000" font-family="Arial" font-size="12">(inputs[0]-&gt;GetBlobDesc().data_format == DATA_FORMAT_NC4HW4 ||</text>
 <text x="1497" y="312" fill="#000000" font-family="Arial" font-size="12">inputs[0]-&gt;GetBlobDesc().data_format == DATA_FORMAT_NC8HW8)</text>
 <polyline points="1634,331 1625,336 1615,342 1605,348 1596,353 1586,359 1576,365 1566,370 1557,375 1549,380 1541,385" stroke="#00ff00" fill="none"/>
 <text x="1593" y="366" fill="#000000" font-family="Arial" font-size="12">yes</text>
 <polygon points="1541,386 1536,387 1540,383 1541,386" stroke="#00ff00" fill="#00ff00"/>
 <polyline points="1785,327 1806,333 1828,338 1851,344 1873,351 1897,357 1919,363 1942,369 1963,375 1983,380 2002,385" stroke="#ff0000" fill="none"/>
 <text x="1937" y="366" fill="#000000" font-family="Arial" font-size="12">no</text>
 <polygon points="2003,383 2007,386 2002,386 2003,383" stroke="#ff0000" fill="#ff0000"/>
 <polygon points="1558,654 1504,654 1504,690 1558,690 1558,654" stroke="#a52a2a" fill="#ffffff"/>
 <text x="1521" y="677" fill="#000000" font-family="Arial" font-size="12">end</text>
 <polyline points="2249,214 2257,217 2264,220 2272,223 2279,227 2286,231 2293,235 2300,240 2306,245 2312,250 2318,256 2322,260 2325,264 2327,268 2329,272 2330,276 2331,280 2332,284 2332,288 2332,293 2332,299 2332,299 2332,301 2332,307 2332,317 2332,334 2332,359 2332,394 2332,441 2332,502 2332,577 2315,599 2266,617 2194,632 2105,644 2004,653 1898,660 1795,665 1701,668 1621,670 1563,671" stroke="#000000" fill="none"/>
 <polygon points="1563,672 1558,671 1563,669 1563,672" stroke="#000000" fill="#000000"/>
 <polyline points="840,508 847,518 856,529 866,542 878,555 891,569 905,582 920,595 936,607 953,617 970,626 1005,638 1052,647 1107,655 1167,660 1231,665 1295,668 1357,669 1413,670 1461,671 1499,671" stroke="#000000" fill="none"/>
 <polygon points="1499,669 1504,671 1499,673 1499,669" stroke="#000000" fill="#000000"/>
 <polyline points="164,594 171,597 178,601 185,604 193,608 201,612 209,615 218,618 227,621 235,624 244,626 305,634 405,642 535,648 686,654 849,658 1013,662 1169,665 1309,668 1422,670 1499,671" stroke="#000000" fill="none"/>
 <polygon points="1499,669 1504,671 1499,672 1499,669" stroke="#000000" fill="#000000"/>
 <polyline points="572,594 596,598 623,603 651,607 680,612 710,617 741,621 773,625 804,629 835,633 866,636 940,643 1015,649 1091,654 1165,658 1237,662 1304,664 1365,666 1419,668 1464,669 1498,670" stroke="#000000" fill="none"/>
 <polygon points="1499,669 1504,671 1499,672 1499,669" stroke="#000000" fill="#000000"/>
 <polyline points="1720,508 1715,517 1708,528 1701,539 1692,552 1683,564 1673,577 1662,590 1651,603 1639,615 1626,626 1620,630 1614,635 1608,639 1601,642 1595,646 1588,649 1582,652 1575,655 1569,658 1563,660" stroke="#000000" fill="none"/>
 <polygon points="1564,662 1558,662 1562,659 1564,662" stroke="#000000" fill="#000000"/>
 <polyline points="1531,594 1531,599 1531,604 1531,609 1531,615 1531,621 1531,626 1531,632 1531,638 1531,643 1531,648" stroke="#000000" fill="none"/>
 <polygon points="1533,649 1531,654 1529,649 1533,649" stroke="#000000" fill="#000000"/>
 <polyline points="1262,594 1284,600 1308,607 1334,614 1360,622 1386,630 1412,637 1437,644 1460,651 1481,657 1499,662" stroke="#000000" fill="none"/>
 <polygon points="1500,660 1504,663 1499,664 1500,660" stroke="#000000" fill="#000000"/>
 <polyline points="2045,422 2023,436 1996,453 1965,472 1929,493 1891,515 1850,538 1807,562 1763,584 1718,606 1674,626 1663,631 1651,635 1639,640 1628,644 1616,648 1604,651 1593,655 1583,658 1572,660 1563,663" stroke="#000000" fill="none"/>
 <polygon points="1563,665 1558,664 1563,661 1563,665" stroke="#000000" fill="#000000"/>
 <polygon points="2108,4 1864,4 1864,54 2108,54 2108,4" stroke="#006400" fill="#ffffff"/>
 <text fill="#000000" font-family="Arial" font-size="12">
  <tspan x="1872" y="20">start</tspan>
  <tspan x="1872" y="44">tnn::ArmInnerProductLayerAcc::DoForward</tspan></text>
 <polygon points="1986,92 1686,110 1986,128 2286,110 1986,92" stroke="#0000ff" fill="#ffffff"/>
 <text x="1826" y="115" fill="#000000" font-family="Arial" font-size="12">(inputs[0]-&gt;GetBlobDesc().data_type == DATA_TYPE_INT8)</text>
 <polyline points="1986,54 1986,57 1986,60 1986,64 1986,67 1986,71 1986,74 1986,77 1986,81 1986,84 1986,87" stroke="#000000" fill="none"/>
 <polygon points="1988,87 1986,92 1984,87 1988,87" stroke="#000000" fill="#000000"/>
 <polygon points="1687,178 1350,196 1687,214 2024,196 1687,178" stroke="#0000ff" fill="#ffffff"/>
 <text x="1507" y="201" fill="#000000" font-family="Arial" font-size="12">(inputs[0]-&gt;GetBlobDesc().data_format == DATA_FORMAT_NCHW)</text>
 <polyline points="1936,125 1919,130 1901,135 1881,140 1861,146 1840,152 1819,158 1799,164 1779,169 1760,174 1743,179" stroke="#ff0000" fill="none"/>
 <text x="1856" y="158" fill="#000000" font-family="Arial" font-size="12">no</text>
 <polygon points="1743,181 1738,181 1742,178 1743,181" stroke="#ff0000" fill="#ff0000"/>
 <polyline points="2020,126 2030,130 2040,135 2051,140 2063,145 2074,151 2086,156 2098,161 2109,166 2120,171 2131,176" stroke="#00ff00" fill="none"/>
 <text x="2092" y="158" fill="#000000" font-family="Arial" font-size="12">yes</text>
 <polygon points="2132,174 2136,178 2131,178 2132,174" stroke="#00ff00" fill="#00ff00"/>
 <polyline points="1495,204 1436,207 1373,210 1309,213 1243,218 1179,223 1117,228 1060,234 1008,241 963,248 927,256 895,266 862,277 830,290 799,304 769,319 740,334 714,348 690,362 669,374 652,385" stroke="#00ff00" fill="none"/>
 <text x="928" y="305" fill="#000000" font-family="Arial" font-size="12">yes</text>
 <polygon points="653,386 647,387 651,383 653,386" stroke="#00ff00" fill="#00ff00"/>
 <polyline points="1687,214 1687,218 1687,222 1687,226 1687,230 1687,235 1687,240 1687,244 1687,249 1687,254 1687,259" stroke="#ff0000" fill="none"/>
 <text x="1688" y="244" fill="#000000" font-family="Arial" font-size="12">no</text>
 <polygon points="1689,259 1687,264 1685,259 1689,259" stroke="#ff0000" fill="#ff0000"/>
 <polygon points="2540,558 2360,558 2360,594 2540,594 2540,558" stroke="#0000ff" fill="#ffffff"/>
 <text x="2368" y="581" fill="#000000" font-family="Arial" font-size="12">return TNNERR_LAYER_ERR;</text>
 <polyline points="2427,594 2421,598 2414,603 2406,608 2398,612 2390,617 2382,621 2373,626 2364,630 2355,633 2346,636 2309,642 2249,648 2170,653 2079,657 1980,661 1879,664 1781,666 1693,668 1618,670 1564,671" stroke="#000000" fill="none"/>
 <polygon points="1563,672 1558,671 1563,669 1563,672" stroke="#000000" fill="#000000"/>
</svg>
